<svg width="1000" height="9942" viewBox="0 0 1000 9942" fill="none" xmlns="http://www.w3.org/2000/svg">
<g clip-path="url(#clip0_20_5)">
<rect width="1000" height="9942" fill="#F9F9F9"/>
<rect width="350" height="204" fill="#D9D9D9"/>
<rect y="204" width="350" height="2351" fill="#D9D9D9"/>
<line x1="347" y1="2555" x2="347" y2="457" stroke="black" stroke-width="6"/>
<rect y="2555" width="350" height="89" fill="#D9D9D9"/>
<line y1="2641" x2="350" y2="2641" stroke="black" stroke-width="6"/>
<line x1="347" y1="2554" x2="347" y2="2644" stroke="black" stroke-width="6"/>
<rect y="2644" width="350" height="2524" fill="#D9D9D9"/>
<line x1="-4" y1="2551" x2="344" y2="2551" stroke="black" stroke-width="6"/>
<line x1="347" y1="5168" x2="347" y2="2897" stroke="black" stroke-width="6"/>
<line y1="5165" x2="350" y2="5165" stroke="black" stroke-width="6"/>
<rect y="5168" width="350" height="1512" fill="#D9D9D9"/>
<line x1="347" y1="5168" x2="347" y2="6680" stroke="black" stroke-width="6"/>
<rect y="6680" width="350" height="1171" fill="#D9D9D9"/>
<line x1="347" y1="7851" x2="347" y2="6933" stroke="black" stroke-width="6"/>
<line y1="7848" x2="350" y2="7848" stroke="black" stroke-width="6"/>
<rect y="7851" width="350" height="2002" fill="#D9D9D9"/>
<path d="M347 7851L347 8021" stroke="black" stroke-width="6"/>
<line x1="347" y1="9853" x2="347" y2="8274" stroke="black" stroke-width="6"/>
<rect x="650" width="350" height="1895" fill="#D9D9D9"/>
<line x1="650" y1="1892" x2="1000" y2="1892" stroke="black" stroke-width="6"/>
<line x1="653" y1="1895" x2="653" y2="1637" stroke="black" stroke-width="6"/>
<line x1="653" x2="653" y2="1384" stroke="black" stroke-width="6"/>
<rect x="650" y="1895" width="350" height="1353" fill="#D9D9D9"/>
<line x1="653" y1="3248" x2="653" y2="2091" stroke="black" stroke-width="6"/>
<rect x="650" y="3826" width="350" height="667" fill="#D9D9D9"/>
<line x1="653" y1="3826" x2="653" y2="4320" stroke="black" stroke-width="6"/>
<line x1="650" y1="4490" x2="1000" y2="4490" stroke="black" stroke-width="6"/>
<rect x="650" y="4493" width="350" height="677" fill="#D9D9D9"/>
<line x1="653" y1="4493" x2="653" y2="4997" stroke="black" stroke-width="6"/>
<line x1="650" y1="5167" x2="1000" y2="5167" stroke="black" stroke-width="6"/>
<rect x="650" y="5170" width="350" height="773" fill="#D9D9D9"/>
<line x1="653" y1="5170" x2="653" y2="5674" stroke="black" stroke-width="6"/>
<line x1="653" y1="5943" x2="653" y2="5847" stroke="black" stroke-width="6"/>
<rect x="650" y="5943" width="350" height="662" fill="#D9D9D9"/>
<line x1="653" y1="6605" x2="653" y2="6104" stroke="black" stroke-width="6"/>
<rect x="650" y="6605" width="350" height="1257" fill="#D9D9D9"/>
<line x1="653" y1="6605" x2="653" y2="7691" stroke="black" stroke-width="6"/>
<line x1="650" y1="7859" x2="1000" y2="7859" stroke="black" stroke-width="6"/>
<rect x="650" y="7862" width="350" height="1345" fill="#D9D9D9"/>
<line x1="653" y1="7862" x2="653" y2="9036" stroke="black" stroke-width="6"/>
<line x1="650" y1="9204" x2="1000" y2="9204" stroke="black" stroke-width="6"/>
<rect x="650" y="9207" width="350" height="735" fill="#D9D9D9"/>
<line x1="653" y1="9207" x2="653" y2="9712" stroke="black" stroke-width="6"/>
<line x1="653" y1="9943" x2="653" y2="9870" stroke="black" stroke-width="6"/>
<rect y="9853" width="350" height="89" fill="#D9D9D9"/>
<line x1="1000" y1="6602" x2="650" y2="6602" stroke="black" stroke-width="6"/>
<line x1="1000" y1="5940" x2="650" y2="5940" stroke="black" stroke-width="6"/>
<line x1="346" x2="346" y2="204" stroke="black" stroke-width="6"/>
<line x1="347" y1="9853" x2="347" y2="9942" stroke="black" stroke-width="6"/>
<path d="M790 826.69H799.077L836.392 860.778C840.762 864.779 844.561 868.073 847.788 870.662C851.049 873.25 854.108 875.167 856.966 876.411C859.857 877.688 862.883 878.327 866.043 878.327C869.673 878.327 872.817 877.453 875.472 875.705C878.128 873.99 880.179 871.637 881.624 868.645C883.07 865.653 883.793 862.291 883.793 858.56C883.793 854.593 882.969 851.13 881.322 848.172C879.708 845.247 877.439 842.978 874.514 841.364C871.589 839.784 868.161 838.994 864.227 838.994V827.094C870.278 827.094 875.59 828.489 880.162 831.279C884.734 834.069 888.297 837.868 890.852 842.675C893.407 847.516 894.685 852.946 894.685 858.963C894.685 865.014 893.407 870.376 890.852 875.049C888.297 879.722 884.852 883.386 880.515 886.042C876.178 888.698 871.354 890.026 866.043 890.026C862.244 890.026 858.529 889.336 854.898 887.958C851.301 886.613 847.284 884.26 842.847 880.898C838.443 877.57 833.064 872.948 826.71 867.031L801.901 843.835H801.094V891.841H790V826.69ZM788.588 946.352C788.588 938.754 790.656 932.283 794.79 926.938C798.959 921.592 804.993 917.508 812.893 914.684C820.827 911.86 830.408 910.448 841.636 910.448C852.797 910.448 862.328 911.86 870.228 914.684C878.162 917.541 884.213 921.643 888.381 926.988C892.584 932.367 894.685 938.821 894.685 946.352C894.685 953.882 892.584 960.32 888.381 965.665C884.213 971.044 878.162 975.145 870.228 977.969C862.328 980.826 852.797 982.255 841.636 982.255C830.408 982.255 820.827 980.843 812.893 978.019C804.993 975.195 798.959 971.111 794.79 965.766C790.656 960.42 788.588 953.949 788.588 946.352ZM799.682 946.352C799.682 953.882 803.313 959.731 810.574 963.9C817.835 968.068 828.189 970.153 841.636 970.153C850.579 970.153 858.193 969.195 864.479 967.278C870.766 965.396 875.556 962.673 878.851 959.109C882.145 955.58 883.793 951.327 883.793 946.352C883.793 938.888 880.112 933.056 872.749 928.854C865.421 924.652 855.05 922.55 841.636 922.55C832.694 922.55 825.097 923.492 818.844 925.374C812.591 927.257 807.834 929.963 804.573 933.493C801.312 937.056 799.682 941.343 799.682 946.352ZM893.273 1037.72H790V1025.22H880.162V1024.61L863.42 999.4H876.128L893.273 1025.22V1037.72Z" fill="black"/>
<path d="M790 2507.69H799.077L836.392 2541.78C840.762 2545.78 844.561 2549.07 847.788 2551.66C851.049 2554.25 854.108 2556.17 856.966 2557.41C859.857 2558.69 862.883 2559.33 866.043 2559.33C869.673 2559.33 872.817 2558.45 875.472 2556.7C878.128 2554.99 880.179 2552.64 881.624 2549.64C883.07 2546.65 883.793 2543.29 883.793 2539.56C883.793 2535.59 882.969 2532.13 881.322 2529.17C879.708 2526.25 877.439 2523.98 874.514 2522.36C871.589 2520.78 868.161 2519.99 864.227 2519.99V2508.09C870.278 2508.09 875.59 2509.49 880.162 2512.28C884.734 2515.07 888.297 2518.87 890.852 2523.68C893.407 2528.52 894.685 2533.95 894.685 2539.96C894.685 2546.01 893.407 2551.38 890.852 2556.05C888.297 2560.72 884.852 2564.39 880.515 2567.04C876.178 2569.7 871.354 2571.03 866.043 2571.03C862.244 2571.03 858.529 2570.34 854.898 2568.96C851.301 2567.61 847.284 2565.26 842.847 2561.9C838.443 2558.57 833.064 2553.95 826.71 2548.03L801.901 2524.84H801.094V2572.84H790V2507.69ZM788.588 2627.35C788.588 2619.75 790.656 2613.28 794.79 2607.94C798.959 2602.59 804.993 2598.51 812.893 2595.68C820.827 2592.86 830.408 2591.45 841.636 2591.45C852.797 2591.45 862.328 2592.86 870.228 2595.68C878.162 2598.54 884.213 2602.64 888.381 2607.99C892.584 2613.37 894.685 2619.82 894.685 2627.35C894.685 2634.88 892.584 2641.32 888.381 2646.66C884.213 2652.04 878.162 2656.14 870.228 2658.97C862.328 2661.83 852.797 2663.25 841.636 2663.25C830.408 2663.25 820.827 2661.84 812.893 2659.02C804.993 2656.2 798.959 2652.11 794.79 2646.77C790.656 2641.42 788.588 2634.95 788.588 2627.35ZM799.682 2627.35C799.682 2634.88 803.313 2640.73 810.574 2644.9C817.835 2649.07 828.189 2651.15 841.636 2651.15C850.579 2651.15 858.193 2650.19 864.479 2648.28C870.766 2646.4 875.556 2643.67 878.851 2640.11C882.145 2636.58 883.793 2632.33 883.793 2627.35C883.793 2619.89 880.112 2614.06 872.749 2609.85C865.421 2605.65 855.05 2603.55 841.636 2603.55C832.694 2603.55 825.097 2604.49 818.844 2606.37C812.591 2608.26 807.834 2610.96 804.573 2614.49C801.312 2618.06 799.682 2622.34 799.682 2627.35ZM790 2682.42H799.077L836.392 2716.5C840.762 2720.51 844.561 2723.8 847.788 2726.39C851.049 2728.98 854.108 2730.89 856.966 2732.14C859.857 2733.41 862.883 2734.05 866.043 2734.05C869.673 2734.05 872.817 2733.18 875.472 2731.43C878.128 2729.72 880.179 2727.36 881.624 2724.37C883.07 2721.38 883.793 2718.02 883.793 2714.29C883.793 2710.32 882.969 2706.86 881.322 2703.9C879.708 2700.97 877.439 2698.7 874.514 2697.09C871.589 2695.51 868.161 2694.72 864.227 2694.72V2682.82C870.278 2682.82 875.59 2684.22 880.162 2687.01C884.734 2689.8 888.297 2693.59 890.852 2698.4C893.407 2703.24 894.685 2708.67 894.685 2714.69C894.685 2720.74 893.407 2726.1 890.852 2730.78C888.297 2735.45 884.852 2739.11 880.515 2741.77C876.178 2744.42 871.354 2745.75 866.043 2745.75C862.244 2745.75 858.529 2745.06 854.898 2743.68C851.301 2742.34 847.284 2739.99 842.847 2736.62C838.443 2733.3 833.064 2728.67 826.71 2722.76L801.901 2699.56H801.094V2747.57H790V2682.42Z" fill="black"/>
<path d="M790 4037.69H799.077L836.392 4071.78C840.762 4075.78 844.561 4079.07 847.788 4081.66C851.049 4084.25 854.108 4086.17 856.966 4087.41C859.857 4088.69 862.883 4089.33 866.043 4089.33C869.673 4089.33 872.817 4088.45 875.472 4086.7C878.128 4084.99 880.179 4082.64 881.624 4079.64C883.07 4076.65 883.793 4073.29 883.793 4069.56C883.793 4065.59 882.969 4062.13 881.322 4059.17C879.708 4056.25 877.439 4053.98 874.514 4052.36C871.589 4050.78 868.161 4049.99 864.227 4049.99V4038.09C870.278 4038.09 875.59 4039.49 880.162 4042.28C884.734 4045.07 888.297 4048.87 890.852 4053.68C893.407 4058.52 894.685 4063.95 894.685 4069.96C894.685 4076.01 893.407 4081.38 890.852 4086.05C888.297 4090.72 884.852 4094.39 880.515 4097.04C876.178 4099.7 871.354 4101.03 866.043 4101.03C862.244 4101.03 858.529 4100.34 854.898 4098.96C851.301 4097.61 847.284 4095.26 842.847 4091.9C838.443 4088.57 833.064 4083.95 826.71 4078.03L801.901 4054.84H801.094V4102.84H790V4037.69ZM788.588 4157.35C788.588 4149.75 790.656 4143.28 794.79 4137.94C798.959 4132.59 804.993 4128.51 812.893 4125.68C820.827 4122.86 830.408 4121.45 841.636 4121.45C852.797 4121.45 862.328 4122.86 870.228 4125.68C878.162 4128.54 884.213 4132.64 888.381 4137.99C892.584 4143.37 894.685 4149.82 894.685 4157.35C894.685 4164.88 892.584 4171.32 888.381 4176.66C884.213 4182.04 878.162 4186.14 870.228 4188.97C862.328 4191.83 852.797 4193.25 841.636 4193.25C830.408 4193.25 820.827 4191.84 812.893 4189.02C804.993 4186.2 798.959 4182.11 794.79 4176.77C790.656 4171.42 788.588 4164.95 788.588 4157.35ZM799.682 4157.35C799.682 4164.88 803.313 4170.73 810.574 4174.9C817.835 4179.07 828.189 4181.15 841.636 4181.15C850.579 4181.15 858.193 4180.19 864.479 4178.28C870.766 4176.4 875.556 4173.67 878.851 4170.11C882.145 4166.58 883.793 4162.33 883.793 4157.35C883.793 4149.89 880.112 4144.06 872.749 4139.85C865.421 4135.65 855.05 4133.55 841.636 4133.55C832.694 4133.55 825.097 4134.49 818.844 4136.37C812.591 4138.26 807.834 4140.96 804.573 4144.49C801.312 4148.06 799.682 4152.34 799.682 4157.35ZM788.588 4247.31C788.588 4240.66 789.731 4234.72 792.017 4229.51C794.303 4224.33 797.48 4220.22 801.548 4217.16C805.649 4214.13 810.406 4212.48 815.818 4212.22V4224.92C812.49 4225.19 809.616 4226.33 807.195 4228.35C804.808 4230.37 802.96 4233.01 801.648 4236.27C800.337 4239.53 799.682 4243.14 799.682 4247.11C799.682 4251.55 800.455 4255.48 802.001 4258.91C803.548 4262.34 805.699 4265.03 808.456 4266.98C811.213 4268.93 814.406 4269.9 818.037 4269.9C821.836 4269.9 825.181 4268.96 828.072 4267.08C830.996 4265.2 833.282 4262.44 834.93 4258.81C836.577 4255.18 837.401 4250.74 837.401 4245.5V4237.23H848.494V4245.5C848.494 4249.6 849.234 4253.19 850.713 4256.29C852.192 4259.41 854.277 4261.85 856.966 4263.6C859.655 4265.38 862.815 4266.27 866.446 4266.27C869.942 4266.27 872.985 4265.5 875.573 4263.95C878.162 4262.41 880.179 4260.22 881.624 4257.4C883.07 4254.61 883.793 4251.31 883.793 4247.51C883.793 4243.95 883.137 4240.59 881.826 4237.43C880.549 4234.3 878.683 4231.75 876.229 4229.76C873.808 4227.78 870.884 4226.7 867.455 4226.54V4214.43C872.867 4214.64 877.607 4216.27 881.675 4219.33C885.776 4222.38 888.97 4226.38 891.256 4231.33C893.542 4236.3 894.685 4241.76 894.685 4247.72C894.685 4254.1 893.39 4259.58 890.802 4264.15C888.247 4268.73 884.868 4272.24 880.666 4274.69C876.464 4277.15 871.926 4278.37 867.051 4278.37C861.235 4278.37 856.277 4276.84 852.175 4273.79C848.074 4270.76 845.233 4266.64 843.653 4261.43H842.847C841.771 4267.95 838.997 4273.05 834.526 4276.71C830.089 4280.37 824.592 4282.21 818.037 4282.21C812.423 4282.21 807.38 4280.68 802.909 4277.62C798.472 4274.59 794.975 4270.46 792.42 4265.21C789.866 4259.97 788.588 4254 788.588 4247.31Z" fill="black"/>
<path d="M790 4703.69H799.077L836.392 4737.78C840.762 4741.78 844.561 4745.07 847.788 4747.66C851.049 4750.25 854.108 4752.17 856.966 4753.41C859.857 4754.69 862.883 4755.33 866.043 4755.33C869.673 4755.33 872.817 4754.45 875.472 4752.7C878.128 4750.99 880.179 4748.64 881.624 4745.64C883.07 4742.65 883.793 4739.29 883.793 4735.56C883.793 4731.59 882.969 4728.13 881.322 4725.17C879.708 4722.25 877.439 4719.98 874.514 4718.36C871.589 4716.78 868.161 4715.99 864.227 4715.99V4704.09C870.278 4704.09 875.59 4705.49 880.162 4708.28C884.734 4711.07 888.297 4714.87 890.852 4719.68C893.407 4724.52 894.685 4729.95 894.685 4735.96C894.685 4742.01 893.407 4747.38 890.852 4752.05C888.297 4756.72 884.852 4760.39 880.515 4763.04C876.178 4765.7 871.354 4767.03 866.043 4767.03C862.244 4767.03 858.529 4766.34 854.898 4764.96C851.301 4763.61 847.284 4761.26 842.847 4757.9C838.443 4754.57 833.064 4749.95 826.71 4744.03L801.901 4720.84H801.094V4768.84H790V4703.69ZM788.588 4823.35C788.588 4815.75 790.656 4809.28 794.79 4803.94C798.959 4798.59 804.993 4794.51 812.893 4791.68C820.827 4788.86 830.408 4787.45 841.636 4787.45C852.797 4787.45 862.328 4788.86 870.228 4791.68C878.162 4794.54 884.213 4798.64 888.381 4803.99C892.584 4809.37 894.685 4815.82 894.685 4823.35C894.685 4830.88 892.584 4837.32 888.381 4842.66C884.213 4848.04 878.162 4852.14 870.228 4854.97C862.328 4857.83 852.797 4859.25 841.636 4859.25C830.408 4859.25 820.827 4857.84 812.893 4855.02C804.993 4852.2 798.959 4848.11 794.79 4842.77C790.656 4837.42 788.588 4830.95 788.588 4823.35ZM799.682 4823.35C799.682 4830.88 803.313 4836.73 810.574 4840.9C817.835 4845.07 828.189 4847.15 841.636 4847.15C850.579 4847.15 858.193 4846.19 864.479 4844.28C870.766 4842.4 875.556 4839.67 878.851 4836.11C882.145 4832.58 883.793 4828.33 883.793 4823.35C883.793 4815.89 880.112 4810.06 872.749 4805.85C865.421 4801.65 855.05 4799.55 841.636 4799.55C832.694 4799.55 825.097 4800.49 818.844 4802.37C812.591 4804.26 807.834 4806.96 804.573 4810.49C801.312 4814.06 799.682 4818.34 799.682 4823.35ZM811.179 4876H821.466L893.273 4921.38V4928.84H877.338V4923.8L823.08 4889.51H822.273V4950.63H811.179V4876ZM790 4924.61H814.305H819.096H893.273V4936.51H790V4924.61Z" fill="black"/>
<path d="M773 5436.69H782.077L819.392 5470.78C823.762 5474.78 827.561 5478.07 830.788 5480.66C834.049 5483.25 837.108 5485.17 839.966 5486.41C842.857 5487.69 845.883 5488.33 849.043 5488.33C852.673 5488.33 855.817 5487.45 858.472 5485.7C861.128 5483.99 863.179 5481.64 864.624 5478.64C866.07 5475.65 866.793 5472.29 866.793 5468.56C866.793 5464.59 865.969 5461.13 864.322 5458.17C862.708 5455.25 860.439 5452.98 857.514 5451.36C854.589 5449.78 851.161 5448.99 847.227 5448.99V5437.09C853.278 5437.09 858.59 5438.49 863.162 5441.28C867.734 5444.07 871.297 5447.87 873.852 5452.68C876.407 5457.52 877.685 5462.95 877.685 5468.96C877.685 5475.01 876.407 5480.38 873.852 5485.05C871.297 5489.72 867.852 5493.39 863.515 5496.04C859.178 5498.7 854.354 5500.03 849.043 5500.03C845.244 5500.03 841.529 5499.34 837.898 5497.96C834.301 5496.61 830.284 5494.26 825.847 5490.9C821.443 5487.57 816.064 5482.95 809.71 5477.03L784.901 5453.84H784.094V5501.84H773V5436.69ZM771.588 5556.35C771.588 5548.75 773.656 5542.28 777.79 5536.94C781.959 5531.59 787.993 5527.51 795.893 5524.68C803.827 5521.86 813.408 5520.45 824.636 5520.45C835.797 5520.45 845.328 5521.86 853.228 5524.68C861.162 5527.54 867.213 5531.64 871.381 5536.99C875.584 5542.37 877.685 5548.82 877.685 5556.35C877.685 5563.88 875.584 5570.32 871.381 5575.66C867.213 5581.04 861.162 5585.14 853.228 5587.97C845.328 5590.83 835.797 5592.25 824.636 5592.25C813.408 5592.25 803.827 5590.84 795.893 5588.02C787.993 5585.2 781.959 5581.11 777.79 5575.77C773.656 5570.42 771.588 5563.95 771.588 5556.35ZM782.682 5556.35C782.682 5563.88 786.313 5569.73 793.574 5573.9C800.835 5578.07 811.189 5580.15 824.636 5580.15C833.579 5580.15 841.193 5579.19 847.479 5577.28C853.766 5575.4 858.556 5572.67 861.851 5569.11C865.145 5565.58 866.793 5561.33 866.793 5556.35C866.793 5548.89 863.112 5543.06 855.749 5538.85C848.421 5534.65 838.05 5532.55 824.636 5532.55C815.694 5532.55 808.097 5533.49 801.844 5535.37C795.591 5537.26 790.834 5539.96 787.573 5543.49C784.312 5547.06 782.682 5551.34 782.682 5556.35ZM771.588 5643.69C771.588 5637.77 772.765 5632.44 775.118 5627.7C777.471 5622.96 780.698 5619.17 784.8 5616.31C788.901 5613.45 793.574 5611.89 798.818 5611.62V5623.72C794.145 5624.19 790.279 5626.31 787.22 5630.07C784.195 5633.87 782.682 5638.41 782.682 5643.69C782.682 5647.93 783.674 5651.69 785.657 5654.99C787.64 5658.31 790.363 5660.92 793.826 5662.8C797.322 5664.72 801.272 5665.68 805.676 5665.68C810.181 5665.68 814.198 5664.68 817.728 5662.7C821.291 5660.75 824.098 5658.06 826.149 5654.63C828.2 5651.2 829.242 5647.29 829.276 5642.88C829.309 5639.72 828.822 5636.48 827.813 5633.15C826.838 5629.82 825.578 5627.08 824.031 5624.93L825.443 5613.23L876.273 5619.49V5673.14H865.179V5629.97L834.722 5626.34V5626.95C836.402 5629.07 837.798 5631.72 838.907 5634.92C840.016 5638.11 840.571 5641.44 840.571 5644.9C840.571 5651.22 839.058 5656.85 836.033 5661.79C833.041 5666.77 828.939 5670.67 823.729 5673.49C818.518 5676.35 812.568 5677.78 805.878 5677.78C799.289 5677.78 793.406 5676.3 788.229 5673.34C783.085 5670.42 779.018 5666.38 776.026 5661.24C773.067 5656.09 771.588 5650.25 771.588 5643.69Z" fill="black"/>
<path d="M773 7158.69H782.077L819.392 7192.78C823.762 7196.78 827.561 7200.07 830.788 7202.66C834.049 7205.25 837.108 7207.17 839.966 7208.41C842.857 7209.69 845.883 7210.33 849.043 7210.33C852.673 7210.33 855.817 7209.45 858.472 7207.7C861.128 7205.99 863.179 7203.64 864.624 7200.64C866.07 7197.65 866.793 7194.29 866.793 7190.56C866.793 7186.59 865.969 7183.13 864.322 7180.17C862.708 7177.25 860.439 7174.98 857.514 7173.36C854.589 7171.78 851.161 7170.99 847.227 7170.99V7159.09C853.278 7159.09 858.59 7160.49 863.162 7163.28C867.734 7166.07 871.297 7169.87 873.852 7174.68C876.407 7179.52 877.685 7184.95 877.685 7190.96C877.685 7197.01 876.407 7202.38 873.852 7207.05C871.297 7211.72 867.852 7215.39 863.515 7218.04C859.178 7220.7 854.354 7222.03 849.043 7222.03C845.244 7222.03 841.529 7221.34 837.898 7219.96C834.301 7218.61 830.284 7216.26 825.847 7212.9C821.443 7209.57 816.064 7204.95 809.71 7199.03L784.901 7175.84H784.094V7223.84H773V7158.69ZM771.588 7278.35C771.588 7270.75 773.656 7264.28 777.79 7258.94C781.959 7253.59 787.993 7249.51 795.893 7246.68C803.827 7243.86 813.408 7242.45 824.636 7242.45C835.797 7242.45 845.328 7243.86 853.228 7246.68C861.162 7249.54 867.213 7253.64 871.381 7258.99C875.584 7264.37 877.685 7270.82 877.685 7278.35C877.685 7285.88 875.584 7292.32 871.381 7297.66C867.213 7303.04 861.162 7307.14 853.228 7309.97C845.328 7312.83 835.797 7314.25 824.636 7314.25C813.408 7314.25 803.827 7312.84 795.893 7310.02C787.993 7307.2 781.959 7303.11 777.79 7297.77C773.656 7292.42 771.588 7285.95 771.588 7278.35ZM782.682 7278.35C782.682 7285.88 786.313 7291.73 793.574 7295.9C800.835 7300.07 811.189 7302.15 824.636 7302.15C833.579 7302.15 841.193 7301.19 847.479 7299.28C853.766 7297.4 858.556 7294.67 861.851 7291.11C865.145 7287.58 866.793 7283.33 866.793 7278.35C866.793 7270.89 863.112 7265.06 855.749 7260.85C848.421 7256.65 838.05 7254.55 824.636 7254.55C815.694 7254.55 808.097 7255.49 801.844 7257.37C795.591 7259.26 790.834 7261.96 787.573 7265.49C784.312 7269.06 782.682 7273.34 782.682 7278.35ZM771.588 7367.71C771.655 7363.47 772.462 7359.24 774.009 7355C775.555 7350.76 778.16 7346.9 781.825 7343.4C785.522 7339.91 790.515 7337.1 796.801 7334.98C803.121 7332.86 811.055 7331.8 820.602 7331.8C829.746 7331.8 837.848 7332.66 844.908 7334.38C852.001 7336.09 857.968 7338.58 862.809 7341.84C867.683 7345.1 871.381 7349.03 873.903 7353.64C876.424 7358.28 877.685 7363.5 877.685 7369.32C877.685 7375.1 876.525 7380.25 874.205 7384.75C871.919 7389.29 868.726 7392.99 864.624 7395.84C860.523 7398.7 855.8 7400.55 850.455 7401.39V7389.09C855.094 7387.94 858.943 7385.73 862.002 7382.43C865.061 7379.14 866.591 7374.77 866.591 7369.32C866.591 7361.32 863.112 7355.02 856.153 7350.41C849.194 7345.84 839.428 7343.54 826.855 7343.5V7344.31C829.713 7346.19 832.15 7348.43 834.167 7351.02C836.218 7353.64 837.798 7356.53 838.907 7359.69C840.016 7362.85 840.571 7366.19 840.571 7369.72C840.571 7375.64 839.092 7381.05 836.134 7385.96C833.209 7390.87 829.158 7394.8 823.981 7397.76C818.837 7400.72 812.938 7402.2 806.281 7402.2C799.894 7402.2 794.045 7400.77 788.733 7397.91C783.455 7395.05 779.253 7391.04 776.126 7385.86C773.034 7380.72 771.521 7374.67 771.588 7367.71ZM782.682 7367.71C782.682 7371.94 783.741 7375.74 785.859 7379.1C787.977 7382.5 790.817 7385.17 794.381 7387.12C797.944 7389.1 801.911 7390.1 806.281 7390.1C810.551 7390.1 814.433 7389.14 817.93 7387.22C821.46 7385.34 824.267 7382.73 826.351 7379.41C828.435 7376.11 829.477 7372.35 829.477 7368.11C829.477 7364.92 828.839 7361.94 827.561 7359.18C826.317 7356.43 824.603 7354.01 822.418 7351.92C820.232 7349.87 817.728 7348.26 814.904 7347.08C812.114 7345.91 809.172 7345.32 806.08 7345.32C801.978 7345.32 798.146 7346.28 794.582 7348.19C791.019 7350.14 788.145 7352.8 785.96 7356.16C783.774 7359.55 782.682 7363.4 782.682 7367.71Z" fill="black"/>
<path d="M773 8459.69H782.077L819.392 8493.78C823.762 8497.78 827.561 8501.07 830.788 8503.66C834.049 8506.25 837.108 8508.17 839.966 8509.41C842.857 8510.69 845.883 8511.33 849.043 8511.33C852.673 8511.33 855.817 8510.45 858.472 8508.7C861.128 8506.99 863.179 8504.64 864.624 8501.64C866.07 8498.65 866.793 8495.29 866.793 8491.56C866.793 8487.59 865.969 8484.13 864.322 8481.17C862.708 8478.25 860.439 8475.98 857.514 8474.36C854.589 8472.78 851.161 8471.99 847.227 8471.99V8460.09C853.278 8460.09 858.59 8461.49 863.162 8464.28C867.734 8467.07 871.297 8470.87 873.852 8475.68C876.407 8480.52 877.685 8485.95 877.685 8491.96C877.685 8498.01 876.407 8503.38 873.852 8508.05C871.297 8512.72 867.852 8516.39 863.515 8519.04C859.178 8521.7 854.354 8523.03 849.043 8523.03C845.244 8523.03 841.529 8522.34 837.898 8520.96C834.301 8519.61 830.284 8517.26 825.847 8513.9C821.443 8510.57 816.064 8505.95 809.71 8500.03L784.901 8476.84H784.094V8524.84H773V8459.69ZM771.588 8579.35C771.588 8571.75 773.656 8565.28 777.79 8559.94C781.959 8554.59 787.993 8550.51 795.893 8547.68C803.827 8544.86 813.408 8543.45 824.636 8543.45C835.797 8543.45 845.328 8544.86 853.228 8547.68C861.162 8550.54 867.213 8554.64 871.381 8559.99C875.584 8565.37 877.685 8571.82 877.685 8579.35C877.685 8586.88 875.584 8593.32 871.381 8598.66C867.213 8604.04 861.162 8608.14 853.228 8610.97C845.328 8613.83 835.797 8615.25 824.636 8615.25C813.408 8615.25 803.827 8613.84 795.893 8611.02C787.993 8608.2 781.959 8604.11 777.79 8598.77C773.656 8593.42 771.588 8586.95 771.588 8579.35ZM782.682 8579.35C782.682 8586.88 786.313 8592.73 793.574 8596.9C800.835 8601.07 811.189 8603.15 824.636 8603.15C833.579 8603.15 841.193 8602.19 847.479 8600.28C853.766 8598.4 858.556 8595.67 861.851 8592.11C865.145 8588.58 866.793 8584.33 866.793 8579.35C866.793 8571.89 863.112 8566.06 855.749 8561.85C848.421 8557.65 838.05 8555.55 824.636 8555.55C815.694 8555.55 808.097 8556.49 801.844 8558.37C795.591 8560.26 790.834 8562.96 787.573 8566.49C784.312 8570.06 782.682 8574.34 782.682 8579.35ZM773 8634.87L864.372 8681.06H865.179V8627.81H876.273V8693.97H864.574L773 8647.98V8634.87Z" fill="black"/>
<path d="M773 9460.69H782.077L819.392 9494.78C823.762 9498.78 827.561 9502.07 830.788 9504.66C834.049 9507.25 837.108 9509.17 839.966 9510.41C842.857 9511.69 845.883 9512.33 849.043 9512.33C852.673 9512.33 855.817 9511.45 858.472 9509.7C861.128 9507.99 863.179 9505.64 864.624 9502.64C866.07 9499.65 866.793 9496.29 866.793 9492.56C866.793 9488.59 865.969 9485.13 864.322 9482.17C862.708 9479.25 860.439 9476.98 857.514 9475.36C854.589 9473.78 851.161 9472.99 847.227 9472.99V9461.09C853.278 9461.09 858.59 9462.49 863.162 9465.28C867.734 9468.07 871.297 9471.87 873.852 9476.68C876.407 9481.52 877.685 9486.95 877.685 9492.96C877.685 9499.01 876.407 9504.38 873.852 9509.05C871.297 9513.72 867.852 9517.39 863.515 9520.04C859.178 9522.7 854.354 9524.03 849.043 9524.03C845.244 9524.03 841.529 9523.34 837.898 9521.96C834.301 9520.61 830.284 9518.26 825.847 9514.9C821.443 9511.57 816.064 9506.95 809.71 9501.03L784.901 9477.84H784.094V9525.84H773V9460.69ZM771.588 9580.35C771.588 9572.75 773.656 9566.28 777.79 9560.94C781.959 9555.59 787.993 9551.51 795.893 9548.68C803.827 9545.86 813.408 9544.45 824.636 9544.45C835.797 9544.45 845.328 9545.86 853.228 9548.68C861.162 9551.54 867.213 9555.64 871.381 9560.99C875.584 9566.37 877.685 9572.82 877.685 9580.35C877.685 9587.88 875.584 9594.32 871.381 9599.66C867.213 9605.04 861.162 9609.14 853.228 9611.97C845.328 9614.83 835.797 9616.25 824.636 9616.25C813.408 9616.25 803.827 9614.84 795.893 9612.02C787.993 9609.2 781.959 9605.11 777.79 9599.77C773.656 9594.42 771.588 9587.95 771.588 9580.35ZM782.682 9580.35C782.682 9587.88 786.313 9593.73 793.574 9597.9C800.835 9602.07 811.189 9604.15 824.636 9604.15C833.579 9604.15 841.193 9603.19 847.479 9601.28C853.766 9599.4 858.556 9596.67 861.851 9593.11C865.145 9589.58 866.793 9585.33 866.793 9580.35C866.793 9572.89 863.112 9567.06 855.749 9562.85C848.421 9558.65 838.05 9556.55 824.636 9556.55C815.694 9556.55 808.097 9557.49 801.844 9559.37C795.591 9561.26 790.834 9563.96 787.573 9567.49C784.312 9571.06 782.682 9575.34 782.682 9580.35ZM771.588 9668.5C771.588 9661.57 772.815 9655.45 775.269 9650.14C777.757 9644.86 781.169 9640.75 785.506 9637.79C789.876 9634.83 794.851 9633.37 800.432 9633.4C804.802 9633.37 808.836 9634.22 812.534 9635.97C816.266 9637.72 819.375 9640.11 821.863 9643.13C824.384 9646.19 825.981 9649.6 826.653 9653.37H827.259C828.536 9648.43 831.309 9644.49 835.579 9641.57C839.882 9638.64 844.773 9637.2 850.253 9637.23C855.497 9637.2 860.187 9638.53 864.322 9641.22C868.457 9643.91 871.718 9647.6 874.104 9652.31C876.491 9657.05 877.685 9662.45 877.685 9668.5C877.685 9674.48 876.491 9679.83 874.104 9684.53C871.718 9689.24 868.457 9692.94 864.322 9695.63C860.187 9698.35 855.497 9699.73 850.253 9699.76C844.773 9699.73 839.882 9698.23 835.579 9695.27C831.309 9692.35 828.536 9688.47 827.259 9683.62H826.653C825.981 9687.36 824.384 9690.72 821.863 9693.71C819.375 9696.7 816.266 9699.09 812.534 9700.87C808.836 9702.65 804.802 9703.56 800.432 9703.59C794.851 9703.56 789.876 9702.05 785.506 9699.05C781.169 9696.1 777.757 9691.98 775.269 9686.7C772.815 9681.46 771.588 9675.39 771.588 9668.5ZM782.682 9668.5C782.682 9673.17 783.438 9677.2 784.951 9680.6C786.464 9683.99 788.598 9686.62 791.355 9688.47C794.112 9690.31 797.339 9691.26 801.037 9691.29C804.937 9691.26 808.382 9690.25 811.374 9688.26C814.366 9686.28 816.719 9683.57 818.434 9680.14C820.148 9676.75 821.006 9672.87 821.006 9668.5C821.006 9664.09 820.148 9660.16 818.434 9656.7C816.719 9653.27 814.366 9650.56 811.374 9648.58C808.382 9646.63 804.937 9645.67 801.037 9645.7C797.339 9645.67 794.112 9646.56 791.355 9648.38C788.598 9650.23 786.464 9652.86 784.951 9656.29C783.438 9659.72 782.682 9663.79 782.682 9668.5ZM831.696 9668.5C831.696 9672.19 832.436 9675.47 833.915 9678.33C835.394 9681.22 837.461 9683.49 840.117 9685.14C842.773 9686.78 845.883 9687.62 849.446 9687.66C852.942 9687.62 855.985 9686.8 858.573 9685.19C861.195 9683.57 863.212 9681.34 864.624 9678.48C866.07 9675.62 866.793 9672.3 866.793 9668.5C866.793 9664.63 866.07 9661.25 864.624 9658.36C863.212 9655.47 861.195 9653.23 858.573 9651.65C855.985 9650.07 852.942 9649.3 849.446 9649.33C845.883 9649.3 842.773 9650.09 840.117 9651.7C837.461 9653.35 835.394 9655.62 833.915 9658.51C832.436 9661.4 831.696 9664.73 831.696 9668.5Z" fill="black"/>
<path d="M227 1488.31H217.923L180.608 1454.22C176.238 1450.22 172.439 1446.93 169.212 1444.34C165.951 1441.75 162.892 1439.83 160.034 1438.59C157.143 1437.31 154.117 1436.67 150.957 1436.67C147.327 1436.67 144.183 1437.55 141.528 1439.3C138.872 1441.01 136.821 1443.36 135.376 1446.36C133.93 1449.35 133.207 1452.71 133.207 1456.44C133.207 1460.41 134.031 1463.87 135.678 1466.83C137.292 1469.75 139.561 1472.02 142.486 1473.64C145.411 1475.22 148.839 1476.01 152.773 1476.01V1487.91C146.722 1487.91 141.41 1486.51 136.838 1483.72C132.266 1480.93 128.703 1477.13 126.148 1472.32C123.593 1467.48 122.315 1462.05 122.315 1456.04C122.315 1449.99 123.593 1444.62 126.148 1439.95C128.703 1435.28 132.148 1431.61 136.485 1428.96C140.822 1426.3 145.646 1424.97 150.957 1424.97C154.756 1424.97 158.471 1425.66 162.102 1427.04C165.699 1428.39 169.716 1430.74 174.153 1434.1C178.557 1437.43 183.936 1442.05 190.29 1447.97L215.099 1471.16H215.906V1423.16H227V1488.31ZM227 1402.33H217.923L180.608 1368.25C176.238 1364.24 172.439 1360.95 169.212 1358.36C165.951 1355.77 162.892 1353.86 160.034 1352.61C157.143 1351.34 154.117 1350.7 150.957 1350.7C147.327 1350.7 144.183 1351.57 141.528 1353.32C138.872 1355.03 136.821 1357.39 135.376 1360.38C133.93 1363.37 133.207 1366.73 133.207 1370.46C133.207 1374.43 134.031 1377.89 135.678 1380.85C137.292 1383.78 139.561 1386.05 142.486 1387.66C145.411 1389.24 148.839 1390.03 152.773 1390.03V1401.93C146.722 1401.93 141.41 1400.53 136.838 1397.74C132.266 1394.95 128.703 1391.16 126.148 1386.35C123.593 1381.51 122.315 1376.08 122.315 1370.06C122.315 1364.01 123.593 1358.65 126.148 1353.97C128.703 1349.3 132.148 1345.64 136.485 1342.98C140.822 1340.33 145.646 1339 150.957 1339C154.756 1339 158.471 1339.69 162.102 1341.07C165.699 1342.41 169.716 1344.76 174.153 1348.12C178.557 1351.45 183.936 1356.08 190.29 1361.99L215.099 1385.19H215.906V1337.18H227V1402.33ZM123.727 1280.05H227V1292.56H136.838V1293.16L153.58 1318.37H140.872L123.727 1292.56V1280.05Z" fill="black"/>
<path d="M227 4025.31H217.923L180.608 3991.22C176.238 3987.22 172.439 3983.93 169.212 3981.34C165.951 3978.75 162.892 3976.83 160.034 3975.59C157.143 3974.31 154.117 3973.67 150.957 3973.67C147.327 3973.67 144.183 3974.55 141.528 3976.3C138.872 3978.01 136.821 3980.36 135.376 3983.36C133.93 3986.35 133.207 3989.71 133.207 3993.44C133.207 3997.41 134.031 4000.87 135.678 4003.83C137.292 4006.75 139.561 4009.02 142.486 4010.64C145.411 4012.22 148.839 4013.01 152.773 4013.01V4024.91C146.722 4024.91 141.41 4023.51 136.838 4020.72C132.266 4017.93 128.703 4014.13 126.148 4009.32C123.593 4004.48 122.315 3999.05 122.315 3993.04C122.315 3986.99 123.593 3981.62 126.148 3976.95C128.703 3972.28 132.148 3968.61 136.485 3965.96C140.822 3963.3 145.646 3961.97 150.957 3961.97C154.756 3961.97 158.471 3962.66 162.102 3964.04C165.699 3965.39 169.716 3967.74 174.153 3971.1C178.557 3974.43 183.936 3979.05 190.29 3984.97L215.099 4008.16H215.906V3960.16H227V4025.31ZM227 3939.33H217.923L180.608 3905.25C176.238 3901.24 172.439 3897.95 169.212 3895.36C165.951 3892.77 162.892 3890.86 160.034 3889.61C157.143 3888.34 154.117 3887.7 150.957 3887.7C147.327 3887.7 144.183 3888.57 141.528 3890.32C138.872 3892.03 136.821 3894.39 135.376 3897.38C133.93 3900.37 133.207 3903.73 133.207 3907.46C133.207 3911.43 134.031 3914.89 135.678 3917.85C137.292 3920.78 139.561 3923.05 142.486 3924.66C145.411 3926.24 148.839 3927.03 152.773 3927.03V3938.93C146.722 3938.93 141.41 3937.53 136.838 3934.74C132.266 3931.95 128.703 3928.16 126.148 3923.35C123.593 3918.51 122.315 3913.08 122.315 3907.06C122.315 3901.01 123.593 3895.65 126.148 3890.97C128.703 3886.3 132.148 3882.64 136.485 3879.98C140.822 3877.33 145.646 3876 150.957 3876C154.756 3876 158.471 3876.69 162.102 3878.07C165.699 3879.41 169.716 3881.76 174.153 3885.12C178.557 3888.45 183.936 3893.08 190.29 3898.99L215.099 3922.19H215.906V3874.18H227V3939.33ZM228.412 3819.67C228.412 3827.27 226.344 3833.74 222.21 3839.09C218.041 3844.43 212.007 3848.52 204.107 3851.34C196.173 3854.16 186.592 3855.58 175.364 3855.58C164.203 3855.58 154.672 3854.16 146.772 3851.34C138.838 3848.48 132.787 3844.38 128.619 3839.04C124.416 3833.66 122.315 3827.2 122.315 3819.67C122.315 3812.14 124.416 3805.7 128.619 3800.36C132.787 3794.98 138.838 3790.88 146.772 3788.05C154.672 3785.2 164.203 3783.77 175.364 3783.77C186.592 3783.77 196.173 3785.18 204.107 3788C212.007 3790.83 218.041 3794.91 222.21 3800.26C226.344 3805.6 228.412 3812.07 228.412 3819.67ZM217.318 3819.67C217.318 3812.14 213.687 3806.29 206.426 3802.12C199.165 3797.96 188.811 3795.87 175.364 3795.87C166.421 3795.87 158.807 3796.83 152.521 3798.75C146.234 3800.63 141.444 3803.35 138.149 3806.91C134.855 3810.44 133.207 3814.7 133.207 3819.67C133.207 3827.13 136.888 3832.97 144.251 3837.17C151.579 3841.37 161.95 3843.47 175.364 3843.47C184.306 3843.47 191.903 3842.53 198.156 3840.65C204.409 3838.77 209.166 3836.06 212.427 3832.53C215.688 3828.97 217.318 3824.68 217.318 3819.67Z" fill="black"/>
<path d="M227 6789.31H217.923L180.608 6755.22C176.238 6751.22 172.439 6747.93 169.212 6745.34C165.951 6742.75 162.892 6740.83 160.034 6739.59C157.143 6738.31 154.117 6737.67 150.957 6737.67C147.327 6737.67 144.183 6738.55 141.528 6740.3C138.872 6742.01 136.821 6744.36 135.376 6747.36C133.93 6750.35 133.207 6753.71 133.207 6757.44C133.207 6761.41 134.031 6764.87 135.678 6767.83C137.292 6770.75 139.561 6773.02 142.486 6774.64C145.411 6776.22 148.839 6777.01 152.773 6777.01V6788.91C146.722 6788.91 141.41 6787.51 136.838 6784.72C132.266 6781.93 128.703 6778.13 126.148 6773.32C123.593 6768.48 122.315 6763.05 122.315 6757.04C122.315 6750.99 123.593 6745.62 126.148 6740.95C128.703 6736.28 132.148 6732.61 136.485 6729.96C140.822 6727.3 145.646 6725.97 150.957 6725.97C154.756 6725.97 158.471 6726.66 162.102 6728.04C165.699 6729.39 169.716 6731.74 174.153 6735.1C178.557 6738.43 183.936 6743.05 190.29 6748.97L215.099 6772.16H215.906V6724.16H227V6789.31ZM123.727 6667.03H227V6679.53H136.838V6680.14L153.58 6705.35H140.872L123.727 6679.53V6667.03ZM122.315 6604.45C122.349 6600.21 123.156 6595.98 124.736 6591.74C126.316 6587.5 128.938 6583.64 132.602 6580.14C136.233 6576.65 141.192 6573.84 147.478 6571.72C153.764 6569.6 161.648 6568.54 171.128 6568.54C180.305 6568.54 188.458 6569.42 195.585 6571.17C202.678 6572.88 208.662 6575.37 213.536 6578.63C218.411 6581.86 222.109 6585.79 224.63 6590.43C227.151 6595.03 228.412 6600.25 228.412 6606.06C228.412 6611.84 227.269 6617 224.983 6621.54C222.663 6626.05 219.453 6629.74 215.352 6632.64C211.217 6635.49 206.426 6637.33 200.98 6638.13V6625.83C205.72 6624.72 209.637 6622.52 212.729 6619.22C215.789 6615.89 217.318 6611.51 217.318 6606.06C217.318 6598.09 213.839 6591.81 206.88 6587.2C199.921 6582.56 190.088 6580.24 177.381 6580.24V6581.05C180.205 6582.93 182.642 6585.17 184.692 6587.76C186.743 6590.34 188.323 6593.22 189.433 6596.38C190.542 6599.54 191.097 6602.9 191.097 6606.46C191.097 6612.38 189.634 6617.81 186.71 6622.75C183.751 6627.66 179.7 6631.59 174.557 6634.55C169.38 6637.48 163.463 6638.94 156.807 6638.94C150.487 6638.94 144.705 6637.53 139.46 6634.7C134.182 6631.85 129.98 6627.85 126.854 6622.7C123.727 6617.52 122.214 6611.44 122.315 6604.45ZM133.409 6604.45C133.409 6608.68 134.468 6612.5 136.586 6615.89C138.67 6619.26 141.494 6621.93 145.058 6623.91C148.587 6625.86 152.504 6626.84 156.807 6626.84C161.11 6626.84 165.026 6625.9 168.556 6624.01C172.052 6622.1 174.843 6619.49 176.927 6616.2C178.978 6612.87 180.003 6609.09 180.003 6604.85C180.003 6601.66 179.381 6598.68 178.137 6595.93C176.86 6593.17 175.128 6590.77 172.943 6588.71C170.724 6586.63 168.22 6585 165.43 6583.82C162.606 6582.65 159.664 6582.06 156.605 6582.06C152.571 6582.06 148.789 6583.03 145.259 6584.98C141.729 6586.9 138.872 6589.55 136.687 6592.95C134.502 6596.31 133.409 6600.14 133.409 6604.45Z" fill="black"/>
<path d="M227 9145.31H217.923L180.608 9111.22C176.238 9107.22 172.439 9103.93 169.212 9101.34C165.951 9098.75 162.892 9096.83 160.034 9095.59C157.143 9094.31 154.117 9093.67 150.957 9093.67C147.327 9093.67 144.183 9094.55 141.528 9096.3C138.872 9098.01 136.821 9100.36 135.376 9103.36C133.93 9106.35 133.207 9109.71 133.207 9113.44C133.207 9117.41 134.031 9120.87 135.678 9123.83C137.292 9126.75 139.561 9129.02 142.486 9130.64C145.411 9132.22 148.839 9133.01 152.773 9133.01V9144.91C146.722 9144.91 141.41 9143.51 136.838 9140.72C132.266 9137.93 128.703 9134.13 126.148 9129.32C123.593 9124.48 122.315 9119.05 122.315 9113.04C122.315 9106.99 123.593 9101.62 126.148 9096.95C128.703 9092.28 132.148 9088.61 136.485 9085.96C140.822 9083.3 145.646 9081.97 150.957 9081.97C154.756 9081.97 158.471 9082.66 162.102 9084.04C165.699 9085.39 169.716 9087.74 174.153 9091.1C178.557 9094.43 183.936 9099.05 190.29 9104.97L215.099 9128.16H215.906V9080.16H227V9145.31ZM123.727 9023.03H227V9035.53H136.838V9036.14L153.58 9061.35H140.872L123.727 9035.53V9023.03ZM228.412 8960.25C228.412 8967.17 227.185 8973.29 224.731 8978.6C222.243 8983.88 218.831 8988 214.494 8990.96C210.124 8993.91 205.149 8995.38 199.568 8995.34C195.198 8995.38 191.164 8994.52 187.466 8992.77C183.734 8991.02 180.625 8988.64 178.137 8985.61C175.616 8982.55 174.019 8979.14 173.347 8975.37H172.741C171.464 8980.32 168.691 8984.25 164.421 8987.17C160.118 8990.1 155.227 8991.54 149.747 8991.51C144.503 8991.54 139.813 8990.22 135.678 8987.53C131.543 8984.84 128.282 8981.14 125.896 8976.43C123.509 8971.69 122.315 8966.3 122.315 8960.25C122.315 8954.26 123.509 8948.92 125.896 8944.21C128.282 8939.5 131.543 8935.81 135.678 8933.12C139.813 8930.39 144.503 8929.02 149.747 8928.98C155.227 8929.02 160.118 8930.51 164.421 8933.47C168.691 8936.39 171.464 8940.28 172.741 8945.12H173.347C174.019 8941.39 175.616 8938.02 178.137 8935.03C180.625 8932.04 183.734 8929.65 187.466 8927.87C191.164 8926.09 195.198 8925.18 199.568 8925.15C205.149 8925.18 210.124 8926.7 214.494 8929.69C218.831 8932.65 222.243 8936.76 224.731 8942.04C227.185 8947.29 228.412 8953.35 228.412 8960.25ZM217.318 8960.25C217.318 8955.57 216.562 8951.54 215.049 8948.14C213.536 8944.75 211.402 8942.13 208.645 8940.28C205.888 8938.43 202.661 8937.49 198.963 8937.45C195.063 8937.49 191.618 8938.5 188.626 8940.48C185.634 8942.46 183.281 8945.17 181.566 8948.6C179.852 8951.99 178.994 8955.88 178.994 8960.25C178.994 8964.65 179.852 8968.58 181.566 8972.05C183.281 8975.47 185.634 8978.18 188.626 8980.16C191.618 8982.11 195.063 8983.07 198.963 8983.04C202.661 8983.07 205.888 8982.18 208.645 8980.37C211.402 8978.52 213.536 8975.88 215.049 8972.45C216.562 8969.02 217.318 8964.95 217.318 8960.25ZM168.304 8960.25C168.304 8956.55 167.564 8953.27 166.085 8950.41C164.606 8947.52 162.539 8945.25 159.883 8943.61C157.227 8941.96 154.117 8941.12 150.554 8941.08C147.058 8941.12 144.015 8941.94 141.427 8943.55C138.805 8945.17 136.788 8947.4 135.376 8950.26C133.93 8953.12 133.207 8956.45 133.207 8960.25C133.207 8964.11 133.93 8967.49 135.376 8970.38C136.788 8973.27 138.805 8975.51 141.427 8977.09C144.015 8978.67 147.058 8979.44 150.554 8979.41C154.117 8979.44 157.227 8978.65 159.883 8977.04C162.539 8975.39 164.606 8973.12 166.085 8970.23C167.564 8967.34 168.304 8964.01 168.304 8960.25Z" fill="black"/>
<path d="M807 6107.16H857.909V6124.96C857.909 6128.51 857.296 6131.43 856.07 6133.74C854.86 6136.04 853.228 6137.76 851.173 6138.88C849.134 6140.01 846.872 6140.57 844.386 6140.57C842.199 6140.57 840.393 6140.18 838.967 6139.41C837.542 6138.64 836.415 6137.63 835.587 6136.37C834.758 6135.13 834.145 6133.78 833.747 6132.32H833.25C833.151 6133.88 832.604 6135.44 831.609 6137.02C830.615 6138.59 829.19 6139.91 827.334 6140.97C825.478 6142.03 823.207 6142.56 820.523 6142.56C817.971 6142.56 815.675 6141.98 813.637 6140.82C811.599 6139.66 809.983 6137.83 808.79 6135.33C807.597 6132.83 807 6129.57 807 6125.56V6107.16ZM812.469 6113.33V6125.56C812.469 6129.59 813.248 6132.45 814.805 6134.14C816.38 6135.84 818.286 6136.7 820.523 6136.7C822.246 6136.7 823.837 6136.26 825.295 6135.38C826.77 6134.5 827.947 6133.25 828.825 6131.62C829.72 6130 830.168 6128.08 830.168 6125.86V6113.33H812.469ZM835.537 6113.33V6124.76C835.537 6126.62 835.902 6128.29 836.631 6129.79C837.36 6131.29 838.387 6132.49 839.713 6133.37C841.039 6134.26 842.597 6134.71 844.386 6134.71C846.624 6134.71 848.521 6133.93 850.079 6132.37C851.653 6130.81 852.44 6128.34 852.44 6124.96V6113.33H835.537ZM807 6154.78V6148.32L857.909 6167.01V6173.37L807 6192.07V6185.6L849.855 6170.39V6169.99L807 6154.78ZM826.886 6157.17V6183.22H821.418V6157.17H826.886ZM807 6200H857.909V6206.16H812.469V6229.83H807V6200ZM842 6278.36V6272.19C843.773 6271.83 845.331 6271.19 846.673 6270.28C848.016 6269.38 849.143 6268.29 850.054 6267C850.982 6265.72 851.678 6264.3 852.142 6262.74C852.606 6261.19 852.838 6259.56 852.838 6257.87C852.838 6254.79 852.059 6252 850.501 6249.5C848.944 6247.01 846.648 6245.03 843.616 6243.55C840.583 6242.1 836.863 6241.37 832.455 6241.37C828.046 6241.37 824.326 6242.1 821.293 6243.55C818.261 6245.03 815.965 6247.01 814.408 6249.5C812.85 6252 812.071 6254.79 812.071 6257.87C812.071 6259.56 812.303 6261.19 812.767 6262.74C813.231 6264.3 813.919 6265.72 814.83 6267C815.758 6268.29 816.893 6269.38 818.236 6270.28C819.595 6271.19 821.152 6271.83 822.909 6272.19V6278.36C820.307 6277.89 817.979 6277.05 815.924 6275.82C813.869 6274.59 812.121 6273.07 810.679 6271.25C809.254 6269.42 808.168 6267.38 807.423 6265.11C806.677 6262.85 806.304 6260.44 806.304 6257.87C806.304 6253.53 807.365 6249.67 809.486 6246.29C811.607 6242.91 814.623 6240.25 818.534 6238.31C822.445 6236.37 827.085 6235.4 832.455 6235.4C837.824 6235.4 842.464 6236.37 846.375 6238.31C850.286 6240.25 853.302 6242.91 855.423 6246.29C857.545 6249.67 858.605 6253.53 858.605 6257.87C858.605 6260.44 858.232 6262.85 857.487 6265.11C856.741 6267.38 855.647 6269.42 854.205 6271.25C852.78 6273.07 851.04 6274.59 848.985 6275.82C846.947 6277.05 844.618 6277.89 842 6278.36ZM832.455 6331.27C827.085 6331.27 822.445 6330.3 818.534 6328.36C814.623 6326.42 811.607 6323.76 809.486 6320.38C807.365 6317 806.304 6313.14 806.304 6308.8C806.304 6304.46 807.365 6300.6 809.486 6297.22C811.607 6293.84 814.623 6291.18 818.534 6289.24C822.445 6287.3 827.085 6286.33 832.455 6286.33C837.824 6286.33 842.464 6287.3 846.375 6289.24C850.286 6291.18 853.302 6293.84 855.423 6297.22C857.545 6300.6 858.605 6304.46 858.605 6308.8C858.605 6313.14 857.545 6317 855.423 6320.38C853.302 6323.76 850.286 6326.42 846.375 6328.36C842.464 6330.3 837.824 6331.27 832.455 6331.27ZM832.455 6325.31C836.863 6325.31 840.583 6324.57 843.616 6323.09C846.648 6321.64 848.944 6319.65 850.501 6317.15C852.059 6314.67 852.838 6311.88 852.838 6308.8C852.838 6305.72 852.059 6302.93 850.501 6300.42C848.944 6297.94 846.648 6295.96 843.616 6294.48C840.583 6293.02 836.863 6292.29 832.455 6292.29C828.046 6292.29 824.326 6293.02 821.293 6294.48C818.261 6295.96 815.965 6297.94 814.408 6300.42C812.85 6302.93 812.071 6305.72 812.071 6308.8C812.071 6311.88 812.85 6314.67 814.408 6317.15C815.965 6319.65 818.261 6321.64 821.293 6323.09C824.326 6324.57 828.046 6325.31 832.455 6325.31ZM857.909 6382.01H807V6376.04L846.972 6348.3V6347.8H807V6341.64H857.909V6347.6L817.838 6375.44V6375.94H857.909V6382.01ZM857.909 6389.97V6397.03L834.145 6411.15V6411.74L857.909 6425.86V6432.92L827.98 6414.53H807V6408.36H827.98L857.909 6389.97Z" fill="black"/>
<mask id="path-63-outside-1_20_5" maskUnits="userSpaceOnUse" x="858" y="3264" width="77" height="515" fill="black">
<rect fill="white" x="858" y="3264" width="77" height="515"/>
<path d="M913.091 3307.72C916.33 3307.34 918.844 3305.78 920.634 3303.06C922.423 3300.33 923.318 3296.98 923.318 3293.02C923.318 3290.12 922.849 3287.59 921.912 3285.41C920.974 3283.26 919.685 3281.58 918.045 3280.36C916.404 3279.17 914.54 3278.57 912.452 3278.57C910.705 3278.57 909.202 3278.99 907.945 3279.82C906.71 3280.67 905.676 3281.76 904.845 3283.08C904.036 3284.4 903.364 3285.79 902.832 3287.24C902.32 3288.68 901.905 3290.02 901.585 3291.23L899.795 3297.88C899.348 3299.58 898.73 3301.48 897.942 3303.57C897.153 3305.68 896.077 3307.69 894.714 3309.61C893.371 3311.55 891.646 3313.14 889.536 3314.4C887.427 3315.66 884.838 3316.29 881.77 3316.29C878.233 3316.29 875.037 3315.36 872.182 3313.51C869.327 3311.67 867.058 3308.99 865.374 3305.45C863.691 3301.94 862.849 3297.66 862.849 3292.64C862.849 3287.95 863.606 3283.89 865.119 3280.46C866.631 3277.05 868.741 3274.37 871.447 3272.41C874.153 3270.47 877.295 3269.37 880.875 3269.11V3277.3C878.403 3277.51 876.358 3278.34 874.739 3279.79C873.141 3281.26 871.947 3283.11 871.159 3285.35C870.392 3287.61 870.009 3290.04 870.009 3292.64C870.009 3295.66 870.499 3298.38 871.479 3300.79C872.48 3303.19 873.865 3305.1 875.634 3306.51C877.423 3307.91 879.511 3308.62 881.898 3308.62C884.071 3308.62 885.839 3308.01 887.203 3306.79C888.567 3305.58 889.675 3303.98 890.527 3302C891.379 3300.02 892.125 3297.88 892.764 3295.58L895.065 3287.52C896.536 3282.41 898.634 3278.36 901.362 3275.38C904.089 3272.39 907.658 3270.9 912.068 3270.9C915.733 3270.9 918.929 3271.89 921.656 3273.88C924.405 3275.88 926.536 3278.56 928.048 3281.93C929.582 3285.32 930.349 3289.1 930.349 3293.28C930.349 3297.49 929.593 3301.24 928.08 3304.53C926.589 3307.81 924.543 3310.41 921.944 3312.32C919.344 3314.26 916.393 3315.29 913.091 3315.39V3307.72ZM922.423 3329.34H929.455V3378.43H922.423V3357.85H864V3349.92H922.423V3329.34ZM864 3389.3V3380.99L929.455 3405.03V3413.21L864 3437.24V3428.93L919.099 3409.37V3408.86L864 3389.3ZM889.568 3392.37V3425.86H882.537V3392.37H889.568ZM929.455 3458.96H864V3451.04H929.455V3458.96ZM864 3478.46H929.455V3500.57C929.455 3505.69 928.581 3509.88 926.834 3513.16C925.108 3516.45 922.732 3518.87 919.707 3520.45C916.681 3522.03 913.24 3522.82 909.384 3522.82C905.527 3522.82 902.107 3522.03 899.124 3520.45C896.141 3518.87 893.798 3516.46 892.093 3513.2C890.41 3509.94 889.568 3505.77 889.568 3500.7V3482.8H896.727V3500.44C896.727 3503.94 897.239 3506.75 898.261 3508.88C899.284 3511.03 900.733 3512.59 902.608 3513.55C904.504 3514.53 906.763 3515.02 909.384 3515.02C912.004 3515.02 914.295 3514.53 916.255 3513.55C918.215 3512.57 919.728 3511 920.793 3508.85C921.88 3506.7 922.423 3503.85 922.423 3500.32V3486.38H864V3478.46ZM893.403 3509.26L864 3525.37V3516.17L893.403 3500.32V3509.26ZM909 3592.29V3584.37C911.28 3583.9 913.283 3583.08 915.009 3581.91C916.734 3580.76 918.183 3579.35 919.355 3577.69C920.548 3576.05 921.443 3574.23 922.04 3572.22C922.636 3570.22 922.935 3568.13 922.935 3565.96C922.935 3562 921.933 3558.41 919.93 3555.19C917.928 3551.99 914.977 3549.45 911.077 3547.55C907.178 3545.67 902.395 3544.74 896.727 3544.74C891.06 3544.74 886.276 3545.67 882.377 3547.55C878.478 3549.45 875.527 3551.99 873.524 3555.19C871.521 3558.41 870.52 3562 870.52 3565.96C870.52 3568.13 870.818 3570.22 871.415 3572.22C872.011 3574.23 872.896 3576.05 874.067 3577.69C875.261 3579.35 876.72 3580.76 878.446 3581.91C880.193 3583.08 882.196 3583.9 884.455 3584.37V3592.29C881.109 3591.7 878.116 3590.61 875.474 3589.03C872.832 3587.46 870.584 3585.5 868.73 3583.15C866.898 3580.81 865.502 3578.18 864.543 3575.26C863.585 3572.36 863.105 3569.26 863.105 3565.96C863.105 3560.38 864.469 3555.41 867.196 3551.07C869.923 3546.72 873.801 3543.3 878.83 3540.81C883.858 3538.31 889.824 3537.07 896.727 3537.07C903.631 3537.07 909.597 3538.31 914.625 3540.81C919.653 3543.3 923.531 3546.72 926.259 3551.07C928.986 3555.41 930.349 3560.38 930.349 3565.96C930.349 3569.26 929.87 3572.36 928.911 3575.26C927.952 3578.18 926.546 3580.81 924.692 3583.15C922.86 3585.5 920.623 3587.46 917.981 3589.03C915.36 3590.61 912.366 3591.7 909 3592.29ZM864 3611.39V3603.08L929.455 3627.11V3635.29L864 3659.33V3651.02L919.099 3631.46V3630.95L864 3611.39ZM889.568 3614.45V3647.95H882.537V3614.45H889.568ZM913.091 3708.92C916.33 3708.53 918.844 3706.98 920.634 3704.25C922.423 3701.52 923.318 3698.18 923.318 3694.22C923.318 3691.32 922.849 3688.78 921.912 3686.61C920.974 3684.46 919.685 3682.77 918.045 3681.56C916.404 3680.37 914.54 3679.77 912.452 3679.77C910.705 3679.77 909.202 3680.19 907.945 3681.02C906.71 3681.87 905.676 3682.96 904.845 3684.28C904.036 3685.6 903.364 3686.98 902.832 3688.43C902.32 3689.88 901.905 3691.21 901.585 3692.43L899.795 3699.07C899.348 3700.78 898.73 3702.67 897.942 3704.76C897.153 3706.87 896.077 3708.89 894.714 3710.8C893.371 3712.74 891.646 3714.34 889.536 3715.6C887.427 3716.85 884.838 3717.48 881.77 3717.48C878.233 3717.48 875.037 3716.56 872.182 3714.7C869.327 3712.87 867.058 3710.19 865.374 3706.65C863.691 3703.13 862.849 3698.86 862.849 3693.83C862.849 3689.14 863.606 3685.09 865.119 3681.66C866.631 3678.25 868.741 3675.56 871.447 3673.6C874.153 3671.66 877.295 3670.57 880.875 3670.31V3678.49C878.403 3678.7 876.358 3679.54 874.739 3680.98C873.141 3682.45 871.947 3684.31 871.159 3686.55C870.392 3688.8 870.009 3691.23 870.009 3693.83C870.009 3696.86 870.499 3699.57 871.479 3701.98C872.48 3704.39 873.865 3706.3 875.634 3707.7C877.423 3709.11 879.511 3709.81 881.898 3709.81C884.071 3709.81 885.839 3709.21 887.203 3707.99C888.567 3706.78 889.675 3705.18 890.527 3703.2C891.379 3701.22 892.125 3699.07 892.764 3696.77L895.065 3688.72C896.536 3683.61 898.634 3679.56 901.362 3676.57C904.089 3673.59 907.658 3672.1 912.068 3672.1C915.733 3672.1 918.929 3673.09 921.656 3675.07C924.405 3677.07 926.536 3679.76 928.048 3683.13C929.582 3686.51 930.349 3690.3 930.349 3694.47C930.349 3698.69 929.593 3702.44 928.08 3705.72C926.589 3709 924.543 3711.6 921.944 3713.52C919.344 3715.46 916.393 3716.48 913.091 3716.59V3708.92ZM864 3734.11H929.455V3773.62H922.423V3742.04H900.307V3771.57H893.276V3742.04H871.031V3774.13H864V3734.11Z"/>
</mask>
<path d="M913.091 3307.72C916.33 3307.34 918.844 3305.78 920.634 3303.06C922.423 3300.33 923.318 3296.98 923.318 3293.02C923.318 3290.12 922.849 3287.59 921.912 3285.41C920.974 3283.26 919.685 3281.58 918.045 3280.36C916.404 3279.17 914.54 3278.57 912.452 3278.57C910.705 3278.57 909.202 3278.99 907.945 3279.82C906.71 3280.67 905.676 3281.76 904.845 3283.08C904.036 3284.4 903.364 3285.79 902.832 3287.24C902.32 3288.68 901.905 3290.02 901.585 3291.23L899.795 3297.88C899.348 3299.58 898.73 3301.48 897.942 3303.57C897.153 3305.68 896.077 3307.69 894.714 3309.61C893.371 3311.55 891.646 3313.14 889.536 3314.4C887.427 3315.66 884.838 3316.29 881.77 3316.29C878.233 3316.29 875.037 3315.36 872.182 3313.51C869.327 3311.67 867.058 3308.99 865.374 3305.45C863.691 3301.94 862.849 3297.66 862.849 3292.64C862.849 3287.95 863.606 3283.89 865.119 3280.46C866.631 3277.05 868.741 3274.37 871.447 3272.41C874.153 3270.47 877.295 3269.37 880.875 3269.11V3277.3C878.403 3277.51 876.358 3278.34 874.739 3279.79C873.141 3281.26 871.947 3283.11 871.159 3285.35C870.392 3287.61 870.009 3290.04 870.009 3292.64C870.009 3295.66 870.499 3298.38 871.479 3300.79C872.48 3303.19 873.865 3305.1 875.634 3306.51C877.423 3307.91 879.511 3308.62 881.898 3308.62C884.071 3308.62 885.839 3308.01 887.203 3306.79C888.567 3305.58 889.675 3303.98 890.527 3302C891.379 3300.02 892.125 3297.88 892.764 3295.58L895.065 3287.52C896.536 3282.41 898.634 3278.36 901.362 3275.38C904.089 3272.39 907.658 3270.9 912.068 3270.9C915.733 3270.9 918.929 3271.89 921.656 3273.88C924.405 3275.88 926.536 3278.56 928.048 3281.93C929.582 3285.32 930.349 3289.1 930.349 3293.28C930.349 3297.49 929.593 3301.24 928.08 3304.53C926.589 3307.81 924.543 3310.41 921.944 3312.32C919.344 3314.26 916.393 3315.29 913.091 3315.39V3307.72ZM922.423 3329.34H929.455V3378.43H922.423V3357.85H864V3349.92H922.423V3329.34ZM864 3389.3V3380.99L929.455 3405.03V3413.21L864 3437.24V3428.93L919.099 3409.37V3408.86L864 3389.3ZM889.568 3392.37V3425.86H882.537V3392.37H889.568ZM929.455 3458.96H864V3451.04H929.455V3458.96ZM864 3478.46H929.455V3500.57C929.455 3505.69 928.581 3509.88 926.834 3513.16C925.108 3516.45 922.732 3518.87 919.707 3520.45C916.681 3522.03 913.24 3522.82 909.384 3522.82C905.527 3522.82 902.107 3522.03 899.124 3520.45C896.141 3518.87 893.798 3516.46 892.093 3513.2C890.41 3509.94 889.568 3505.77 889.568 3500.7V3482.8H896.727V3500.44C896.727 3503.94 897.239 3506.75 898.261 3508.88C899.284 3511.03 900.733 3512.59 902.608 3513.55C904.504 3514.53 906.763 3515.02 909.384 3515.02C912.004 3515.02 914.295 3514.53 916.255 3513.55C918.215 3512.57 919.728 3511 920.793 3508.85C921.88 3506.7 922.423 3503.85 922.423 3500.32V3486.38H864V3478.46ZM893.403 3509.26L864 3525.37V3516.17L893.403 3500.32V3509.26ZM909 3592.29V3584.37C911.28 3583.9 913.283 3583.08 915.009 3581.91C916.734 3580.76 918.183 3579.35 919.355 3577.69C920.548 3576.05 921.443 3574.23 922.04 3572.22C922.636 3570.22 922.935 3568.13 922.935 3565.96C922.935 3562 921.933 3558.41 919.93 3555.19C917.928 3551.99 914.977 3549.45 911.077 3547.55C907.178 3545.67 902.395 3544.74 896.727 3544.74C891.06 3544.74 886.276 3545.67 882.377 3547.55C878.478 3549.45 875.527 3551.99 873.524 3555.19C871.521 3558.41 870.52 3562 870.52 3565.96C870.52 3568.13 870.818 3570.22 871.415 3572.22C872.011 3574.23 872.896 3576.05 874.067 3577.69C875.261 3579.35 876.72 3580.76 878.446 3581.91C880.193 3583.08 882.196 3583.9 884.455 3584.37V3592.29C881.109 3591.7 878.116 3590.61 875.474 3589.03C872.832 3587.46 870.584 3585.5 868.73 3583.15C866.898 3580.81 865.502 3578.18 864.543 3575.26C863.585 3572.36 863.105 3569.26 863.105 3565.96C863.105 3560.38 864.469 3555.41 867.196 3551.07C869.923 3546.72 873.801 3543.3 878.83 3540.81C883.858 3538.31 889.824 3537.07 896.727 3537.07C903.631 3537.07 909.597 3538.31 914.625 3540.81C919.653 3543.3 923.531 3546.72 926.259 3551.07C928.986 3555.41 930.349 3560.38 930.349 3565.96C930.349 3569.26 929.87 3572.36 928.911 3575.26C927.952 3578.18 926.546 3580.81 924.692 3583.15C922.86 3585.5 920.623 3587.46 917.981 3589.03C915.36 3590.61 912.366 3591.7 909 3592.29ZM864 3611.39V3603.08L929.455 3627.11V3635.29L864 3659.33V3651.02L919.099 3631.46V3630.95L864 3611.39ZM889.568 3614.45V3647.95H882.537V3614.45H889.568ZM913.091 3708.92C916.33 3708.53 918.844 3706.98 920.634 3704.25C922.423 3701.52 923.318 3698.18 923.318 3694.22C923.318 3691.32 922.849 3688.78 921.912 3686.61C920.974 3684.46 919.685 3682.77 918.045 3681.56C916.404 3680.37 914.54 3679.77 912.452 3679.77C910.705 3679.77 909.202 3680.19 907.945 3681.02C906.71 3681.87 905.676 3682.96 904.845 3684.28C904.036 3685.6 903.364 3686.98 902.832 3688.43C902.32 3689.88 901.905 3691.21 901.585 3692.43L899.795 3699.07C899.348 3700.78 898.73 3702.67 897.942 3704.76C897.153 3706.87 896.077 3708.89 894.714 3710.8C893.371 3712.74 891.646 3714.34 889.536 3715.6C887.427 3716.85 884.838 3717.48 881.77 3717.48C878.233 3717.48 875.037 3716.56 872.182 3714.7C869.327 3712.87 867.058 3710.19 865.374 3706.65C863.691 3703.13 862.849 3698.86 862.849 3693.83C862.849 3689.14 863.606 3685.09 865.119 3681.66C866.631 3678.25 868.741 3675.56 871.447 3673.6C874.153 3671.66 877.295 3670.57 880.875 3670.31V3678.49C878.403 3678.7 876.358 3679.54 874.739 3680.98C873.141 3682.45 871.947 3684.31 871.159 3686.55C870.392 3688.8 870.009 3691.23 870.009 3693.83C870.009 3696.86 870.499 3699.57 871.479 3701.98C872.48 3704.39 873.865 3706.3 875.634 3707.7C877.423 3709.11 879.511 3709.81 881.898 3709.81C884.071 3709.81 885.839 3709.21 887.203 3707.99C888.567 3706.78 889.675 3705.18 890.527 3703.2C891.379 3701.22 892.125 3699.07 892.764 3696.77L895.065 3688.72C896.536 3683.61 898.634 3679.56 901.362 3676.57C904.089 3673.59 907.658 3672.1 912.068 3672.1C915.733 3672.1 918.929 3673.09 921.656 3675.07C924.405 3677.07 926.536 3679.76 928.048 3683.13C929.582 3686.51 930.349 3690.3 930.349 3694.47C930.349 3698.69 929.593 3702.44 928.08 3705.72C926.589 3709 924.543 3711.6 921.944 3713.52C919.344 3715.46 916.393 3716.48 913.091 3716.59V3708.92ZM864 3734.11H929.455V3773.62H922.423V3742.04H900.307V3771.57H893.276V3742.04H871.031V3774.13H864V3734.11Z" fill="white"/>
<path d="M913.091 3307.72L912.621 3303.75L909.091 3304.17V3307.72H913.091ZM920.634 3303.06L917.289 3300.86L920.634 3303.06ZM921.912 3285.41L925.585 3283.83L925.582 3283.82L925.579 3283.82L921.912 3285.41ZM918.045 3280.36L920.425 3277.15L920.411 3277.14L920.397 3277.13L918.045 3280.36ZM907.945 3279.82L905.74 3276.48L905.707 3276.51L905.674 3276.53L907.945 3279.82ZM904.845 3283.08L901.459 3280.95L901.447 3280.97L901.435 3280.99L904.845 3283.08ZM902.832 3287.24L899.077 3285.85L899.068 3285.88L899.06 3285.9L902.832 3287.24ZM901.585 3291.23L905.448 3292.27L905.451 3292.26L905.454 3292.25L901.585 3291.23ZM899.795 3297.88L895.933 3296.84L895.93 3296.85L895.927 3296.86L899.795 3297.88ZM897.942 3303.57L894.2 3302.15L894.195 3302.17L897.942 3303.57ZM894.714 3309.61L891.454 3307.29L891.439 3307.31L891.425 3307.33L894.714 3309.61ZM889.536 3314.4L891.584 3317.84L891.584 3317.84L889.536 3314.4ZM872.182 3313.51L874.36 3310.15L874.351 3310.15L874.342 3310.14L872.182 3313.51ZM865.374 3305.45L868.986 3303.73L868.982 3303.73L865.374 3305.45ZM865.119 3280.46L861.462 3278.84L861.459 3278.85L865.119 3280.46ZM871.447 3272.41L869.117 3269.15L869.109 3269.16L869.1 3269.17L871.447 3272.41ZM880.875 3269.11H884.875V3264.82L880.59 3265.12L880.875 3269.11ZM880.875 3277.3L881.219 3281.28L884.875 3280.97V3277.3H880.875ZM874.739 3279.79L872.071 3276.81L872.051 3276.83L872.03 3276.84L874.739 3279.79ZM871.159 3285.35L867.386 3284.02L867.379 3284.04L867.372 3284.06L871.159 3285.35ZM871.479 3300.79L867.774 3302.29L867.78 3302.31L867.785 3302.32L871.479 3300.79ZM875.634 3306.51L873.144 3309.64L873.153 3309.65L873.162 3309.65L875.634 3306.51ZM887.203 3306.79L889.863 3309.78L887.203 3306.79ZM890.527 3302L886.852 3300.42V3300.42L890.527 3302ZM892.764 3295.58L888.918 3294.48L888.914 3294.49L888.91 3294.51L892.764 3295.58ZM895.065 3287.52L891.221 3286.42L891.219 3286.42L895.065 3287.52ZM901.362 3275.38L898.409 3272.68V3272.68L901.362 3275.38ZM921.656 3273.88L924.012 3270.64L924.007 3270.64L921.656 3273.88ZM928.048 3281.93L924.4 3283.57L924.404 3283.58L928.048 3281.93ZM928.08 3304.53L924.448 3302.85L924.443 3302.86L924.439 3302.87L928.08 3304.53ZM921.944 3312.32L919.569 3309.1L919.561 3309.11L919.552 3309.12L921.944 3312.32ZM913.091 3315.39H909.091V3319.52L913.22 3319.39L913.091 3315.39ZM913.091 3307.72L913.561 3311.69C917.974 3311.17 921.54 3308.96 923.978 3305.25L920.634 3303.06L917.289 3300.86C916.148 3302.6 914.685 3303.5 912.621 3303.75L913.091 3307.72ZM920.634 3303.06L923.978 3305.25C926.28 3301.74 927.318 3297.59 927.318 3293.02H923.318H919.318C919.318 3296.37 918.567 3298.91 917.289 3300.86L920.634 3303.06ZM923.318 3293.02H927.318C927.318 3289.7 926.781 3286.6 925.585 3283.83L921.912 3285.41L918.239 3287C918.918 3288.57 919.318 3290.55 919.318 3293.02H923.318ZM921.912 3285.41L925.579 3283.82C924.404 3281.12 922.709 3278.84 920.425 3277.15L918.045 3280.36L915.665 3283.58C916.662 3284.32 917.545 3285.4 918.245 3287.01L921.912 3285.41ZM918.045 3280.36L920.397 3277.13C918.052 3275.42 915.359 3274.57 912.452 3274.57V3278.57V3282.57C913.721 3282.57 914.756 3282.92 915.692 3283.6L918.045 3280.36ZM912.452 3278.57V3274.57C910.048 3274.57 907.75 3275.15 905.74 3276.48L907.945 3279.82L910.151 3283.16C910.655 3282.82 911.361 3282.57 912.452 3282.57V3278.57ZM907.945 3279.82L905.674 3276.53C903.974 3277.7 902.568 3279.19 901.459 3280.95L904.845 3283.08L908.231 3285.21C908.785 3284.33 909.445 3283.65 910.216 3283.11L907.945 3279.82ZM904.845 3283.08L901.435 3280.99C900.488 3282.53 899.701 3284.16 899.077 3285.85L902.832 3287.24L906.586 3288.62C907.027 3287.41 907.583 3286.27 908.256 3285.17L904.845 3283.08ZM902.832 3287.24L899.06 3285.9C898.52 3287.43 898.07 3288.87 897.717 3290.21L901.585 3291.23L905.454 3292.25C905.74 3291.16 906.121 3289.93 906.604 3288.57L902.832 3287.24ZM901.585 3291.23L897.723 3290.19L895.933 3296.84L899.795 3297.88L903.658 3298.92L905.448 3292.27L901.585 3291.23ZM899.795 3297.88L895.927 3296.86C895.522 3298.4 894.951 3300.16 894.2 3302.15L897.942 3303.57L901.684 3304.98C902.509 3302.79 903.174 3300.76 903.664 3298.89L899.795 3297.88ZM897.942 3303.57L894.195 3302.17C893.534 3303.94 892.625 3305.64 891.454 3307.29L894.714 3309.61L897.974 3311.93C899.53 3309.74 900.773 3307.42 901.689 3304.97L897.942 3303.57ZM894.714 3309.61L891.425 3307.33C890.422 3308.78 889.127 3309.99 887.488 3310.97L889.536 3314.4L891.584 3317.84C894.164 3316.3 896.321 3314.31 898.003 3311.88L894.714 3309.61ZM889.536 3314.4L887.488 3310.97C886.135 3311.77 884.295 3312.29 881.77 3312.29V3316.29V3320.29C885.381 3320.29 888.718 3319.55 891.584 3317.84L889.536 3314.4ZM881.77 3316.29V3312.29C878.974 3312.29 876.54 3311.57 874.36 3310.15L872.182 3313.51L870.004 3316.86C873.533 3319.15 877.492 3320.29 881.77 3320.29V3316.29ZM872.182 3313.51L874.342 3310.14C872.207 3308.77 870.399 3306.7 868.986 3303.73L865.374 3305.45L861.762 3307.17C863.716 3311.28 866.446 3314.58 870.021 3316.87L872.182 3313.51ZM865.374 3305.45L868.982 3303.73C867.621 3300.88 866.849 3297.23 866.849 3292.64H862.849H858.849C858.849 3298.1 859.761 3302.99 861.766 3307.18L865.374 3305.45ZM862.849 3292.64H866.849C866.849 3288.37 867.539 3284.89 868.779 3282.07L865.119 3280.46L861.459 3278.85C859.673 3282.89 858.849 3287.53 858.849 3292.64H862.849ZM865.119 3280.46L868.775 3282.08C870.035 3279.24 871.723 3277.14 873.793 3275.64L871.447 3272.41L869.1 3269.17C865.758 3271.59 863.227 3274.86 861.462 3278.84L865.119 3280.46ZM871.447 3272.41L873.777 3275.66C875.835 3274.18 878.257 3273.31 881.16 3273.1L880.875 3269.11L880.59 3265.12C876.333 3265.43 872.47 3266.75 869.117 3269.15L871.447 3272.41ZM880.875 3269.11H876.875V3277.3H880.875H884.875V3269.11H880.875ZM880.875 3277.3L880.531 3273.31C877.325 3273.59 874.426 3274.7 872.071 3276.81L874.739 3279.79L877.406 3282.77C878.29 3281.98 879.482 3281.43 881.219 3281.28L880.875 3277.3ZM874.739 3279.79L872.03 3276.84C869.907 3278.8 868.372 3281.22 867.386 3284.02L871.159 3285.35L874.932 3286.68C875.523 3285 876.374 3283.72 877.447 3282.73L874.739 3279.79ZM871.159 3285.35L867.372 3284.06C866.452 3286.77 866.009 3289.64 866.009 3292.64H870.009H874.009C874.009 3290.44 874.332 3288.44 874.947 3286.64L871.159 3285.35ZM870.009 3292.64H866.009C866.009 3296.1 866.57 3299.34 867.774 3302.29L871.479 3300.79L875.183 3299.28C874.428 3297.42 874.009 3295.23 874.009 3292.64H870.009ZM871.479 3300.79L867.785 3302.32C869.006 3305.26 870.769 3307.75 873.144 3309.64L875.634 3306.51L878.123 3303.38C876.961 3302.45 875.954 3301.13 875.172 3299.25L871.479 3300.79ZM875.634 3306.51L873.162 3309.65C875.693 3311.64 878.662 3312.62 881.898 3312.62V3308.62V3304.62C880.361 3304.62 879.154 3304.19 878.105 3303.36L875.634 3306.51ZM881.898 3308.62V3312.62C884.855 3312.62 887.633 3311.77 889.863 3309.78L887.203 3306.79L884.543 3303.81C884.046 3304.25 883.287 3304.62 881.898 3304.62V3308.62ZM887.203 3306.79L889.863 3309.78C891.736 3308.11 893.16 3306 894.202 3303.58L890.527 3302L886.852 3300.42C886.19 3301.96 885.397 3303.05 884.543 3303.81L887.203 3306.79ZM890.527 3302L894.202 3303.58C895.132 3301.42 895.936 3299.1 896.618 3296.65L892.764 3295.58L888.91 3294.51C888.314 3296.65 887.626 3298.62 886.852 3300.42L890.527 3302ZM892.764 3295.58L896.61 3296.68L898.911 3288.62L895.065 3287.52L891.219 3286.42L888.918 3294.48L892.764 3295.58ZM895.065 3287.52L898.91 3288.63C900.261 3283.93 902.113 3280.48 904.314 3278.08L901.362 3275.38L898.409 3272.68C895.156 3276.24 892.81 3280.89 891.221 3286.42L895.065 3287.52ZM901.362 3275.38L904.314 3278.08C906.209 3276 908.666 3274.9 912.068 3274.9V3270.9V3266.9C906.649 3266.9 901.968 3268.79 898.409 3272.68L901.362 3275.38ZM912.068 3270.9V3274.9C914.966 3274.9 917.321 3275.67 919.305 3277.11L921.656 3273.88L924.007 3270.64C920.537 3268.12 916.5 3266.9 912.068 3266.9V3270.9ZM921.656 3273.88L919.301 3277.11C921.44 3278.67 923.147 3280.78 924.4 3283.57L928.048 3281.93L931.697 3280.29C929.924 3276.34 927.37 3273.09 924.012 3270.64L921.656 3273.88ZM928.048 3281.93L924.404 3283.58C925.677 3286.39 926.349 3289.6 926.349 3293.28H930.349H934.349C934.349 3288.6 933.488 3284.25 931.692 3280.28L928.048 3281.93ZM930.349 3293.28H926.349C926.349 3297.01 925.681 3300.18 924.448 3302.85L928.08 3304.53L931.713 3306.2C933.505 3302.31 934.349 3297.98 934.349 3293.28H930.349ZM928.08 3304.53L924.439 3302.87C923.196 3305.6 921.559 3307.64 919.569 3309.1L921.944 3312.32L924.318 3315.54C927.528 3313.18 929.981 3310.01 931.722 3306.18L928.08 3304.53ZM921.944 3312.32L919.552 3309.12C917.622 3310.56 915.464 3311.31 912.962 3311.39L913.091 3315.39L913.22 3319.39C917.323 3319.26 921.067 3317.97 924.335 3315.53L921.944 3312.32ZM913.091 3315.39H917.091V3307.72H913.091H909.091V3315.39H913.091ZM922.423 3329.34V3325.34H918.423V3329.34H922.423ZM929.455 3329.34H933.455V3325.34H929.455V3329.34ZM929.455 3378.43V3382.43H933.455V3378.43H929.455ZM922.423 3378.43H918.423V3382.43H922.423V3378.43ZM922.423 3357.85H926.423V3353.85H922.423V3357.85ZM864 3357.85H860V3361.85H864V3357.85ZM864 3349.92V3345.92H860V3349.92H864ZM922.423 3349.92V3353.92H926.423V3349.92H922.423ZM922.423 3329.34V3333.34H929.455V3329.34V3325.34H922.423V3329.34ZM929.455 3329.34H925.455V3378.43H929.455H933.455V3329.34H929.455ZM929.455 3378.43V3374.43H922.423V3378.43V3382.43H929.455V3378.43ZM922.423 3378.43H926.423V3357.85H922.423H918.423V3378.43H922.423ZM922.423 3357.85V3353.85H864V3357.85V3361.85H922.423V3357.85ZM864 3357.85H868V3349.92H864H860V3357.85H864ZM864 3349.92V3353.92H922.423V3349.92V3345.92H864V3349.92ZM922.423 3349.92H926.423V3329.34H922.423H918.423V3349.92H922.423ZM864 3389.3H860V3392.13L862.662 3393.07L864 3389.3ZM864 3380.99L865.379 3377.24L860 3375.26V3380.99H864ZM929.455 3405.03H933.455V3402.23L930.833 3401.27L929.455 3405.03ZM929.455 3413.21L930.833 3416.96L933.455 3416V3413.21H929.455ZM864 3437.24H860V3442.97L865.379 3441L864 3437.24ZM864 3428.93L862.662 3425.16L860 3426.11V3428.93H864ZM919.099 3409.37L920.438 3413.14L923.099 3412.2V3409.37H919.099ZM919.099 3408.86H923.099V3406.04L920.438 3405.09L919.099 3408.86ZM889.568 3392.37H893.568V3388.37H889.568V3392.37ZM889.568 3425.86V3429.86H893.568V3425.86H889.568ZM882.537 3425.86H878.537V3429.86H882.537V3425.86ZM882.537 3392.37V3388.37H878.537V3392.37H882.537ZM864 3389.3H868V3380.99H864H860V3389.3H864ZM864 3380.99L862.621 3384.75L928.076 3408.78L929.455 3405.03L930.833 3401.27L865.379 3377.24L864 3380.99ZM929.455 3405.03H925.455V3413.21H929.455H933.455V3405.03H929.455ZM929.455 3413.21L928.076 3409.45L862.621 3433.49L864 3437.24L865.379 3441L930.833 3416.96L929.455 3413.21ZM864 3437.24H868V3428.93H864H860V3437.24H864ZM864 3428.93L865.338 3432.7L920.438 3413.14L919.099 3409.37L917.761 3405.6L862.662 3425.16L864 3428.93ZM919.099 3409.37H923.099V3408.86H919.099H915.099V3409.37H919.099ZM919.099 3408.86L920.438 3405.09L865.338 3385.53L864 3389.3L862.662 3393.07L917.761 3412.63L919.099 3408.86ZM889.568 3392.37H885.568V3425.86H889.568H893.568V3392.37H889.568ZM889.568 3425.86V3421.86H882.537V3425.86V3429.86H889.568V3425.86ZM882.537 3425.86H886.537V3392.37H882.537H878.537V3425.86H882.537ZM882.537 3392.37V3396.37H889.568V3392.37V3388.37H882.537V3392.37ZM929.455 3458.96V3462.96H933.455V3458.96H929.455ZM864 3458.96H860V3462.96H864V3458.96ZM864 3451.04V3447.04H860V3451.04H864ZM929.455 3451.04H933.455V3447.04H929.455V3451.04ZM929.455 3458.96V3454.96H864V3458.96V3462.96H929.455V3458.96ZM864 3458.96H868V3451.04H864H860V3458.96H864ZM864 3451.04V3455.04H929.455V3451.04V3447.04H864V3451.04ZM929.455 3451.04H925.455V3458.96H929.455H933.455V3451.04H929.455ZM864 3478.46V3474.46H860V3478.46H864ZM929.455 3478.46H933.455V3474.46H929.455V3478.46ZM926.834 3513.16L923.303 3511.28L923.298 3511.29L923.294 3511.3L926.834 3513.16ZM919.707 3520.45L917.858 3516.9H917.858L919.707 3520.45ZM899.124 3520.45L900.994 3516.91H900.994L899.124 3520.45ZM892.093 3513.2L888.539 3515.03L888.544 3515.04L888.548 3515.05L892.093 3513.2ZM889.568 3482.8V3478.8H885.568V3482.8H889.568ZM896.727 3482.8H900.727V3478.8H896.727V3482.8ZM898.261 3508.88L901.874 3507.16L901.871 3507.16L901.867 3507.15L898.261 3508.88ZM902.608 3513.55L904.445 3509.99L904.437 3509.99L904.429 3509.99L902.608 3513.55ZM920.793 3508.85L917.223 3507.05L917.216 3507.06L917.209 3507.07L920.793 3508.85ZM922.423 3486.38H926.423V3482.38H922.423V3486.38ZM864 3486.38H860V3490.38H864V3486.38ZM893.403 3509.26L895.325 3512.77L897.403 3511.63V3509.26H893.403ZM864 3525.37H860V3532.12L865.922 3528.88L864 3525.37ZM864 3516.17L862.102 3512.65L860 3513.78V3516.17H864ZM893.403 3500.32H897.403V3493.62L891.505 3496.79L893.403 3500.32ZM864 3478.46V3482.46H929.455V3478.46V3474.46H864V3478.46ZM929.455 3478.46H925.455V3500.57H929.455H933.455V3478.46H929.455ZM929.455 3500.57H925.455C925.455 3505.26 924.648 3508.76 923.303 3511.28L926.834 3513.16L930.364 3515.04C932.514 3511.01 933.455 3506.11 933.455 3500.57H929.455ZM926.834 3513.16L923.294 3511.3C921.912 3513.93 920.098 3515.74 917.858 3516.9L919.707 3520.45L921.555 3524C925.366 3522.01 928.303 3518.96 930.374 3515.03L926.834 3513.16ZM919.707 3520.45L917.858 3516.9C915.474 3518.15 912.681 3518.82 909.384 3518.82V3522.82V3526.82C913.799 3526.82 917.888 3525.91 921.555 3524L919.707 3520.45ZM909.384 3522.82V3518.82C906.085 3518.82 903.323 3518.15 900.994 3516.91L899.124 3520.45L897.255 3523.99C900.892 3525.91 904.969 3526.82 909.384 3526.82V3522.82ZM899.124 3520.45L900.994 3516.91C898.791 3515.75 897.003 3513.95 895.638 3511.34L892.093 3513.2L888.548 3515.05C890.593 3518.96 893.491 3522 897.255 3523.99L899.124 3520.45ZM892.093 3513.2L895.647 3511.36C894.347 3508.84 893.568 3505.36 893.568 3500.7H889.568H885.568C885.568 3506.18 886.472 3511.03 888.539 3515.03L892.093 3513.2ZM889.568 3500.7H893.568V3482.8H889.568H885.568V3500.7H889.568ZM889.568 3482.8V3486.8H896.727V3482.8V3478.8H889.568V3482.8ZM896.727 3482.8H892.727V3500.44H896.727H900.727V3482.8H896.727ZM896.727 3500.44H892.727C892.727 3504.27 893.279 3507.75 894.655 3510.61L898.261 3508.88L901.867 3507.15C901.198 3505.76 900.727 3503.6 900.727 3500.44H896.727ZM898.261 3508.88L894.649 3510.6C895.997 3513.44 898.026 3515.7 900.787 3517.11L902.608 3513.55L904.429 3509.99C903.44 3509.48 902.571 3508.63 901.874 3507.16L898.261 3508.88ZM902.608 3513.55L900.771 3517.1C903.35 3518.43 906.267 3519.02 909.384 3519.02V3515.02V3511.02C907.259 3511.02 905.658 3510.62 904.445 3509.99L902.608 3513.55ZM909.384 3515.02V3519.02C912.505 3519.02 915.43 3518.43 918.044 3517.13L916.255 3513.55L914.466 3509.97C913.16 3510.62 911.504 3511.02 909.384 3511.02V3515.02ZM916.255 3513.55L918.044 3517.13C920.858 3515.72 922.965 3513.48 924.378 3510.62L920.793 3508.85L917.209 3507.07C916.49 3508.53 915.572 3509.42 914.466 3509.97L916.255 3513.55ZM920.793 3508.85L924.364 3510.65C925.834 3507.74 926.423 3504.21 926.423 3500.32H922.423H918.423C918.423 3503.5 917.926 3505.65 917.223 3507.05L920.793 3508.85ZM922.423 3500.32H926.423V3486.38H922.423H918.423V3500.32H922.423ZM922.423 3486.38V3482.38H864V3486.38V3490.38H922.423V3486.38ZM864 3486.38H868V3478.46H864H860V3486.38H864ZM893.403 3509.26L891.482 3505.76L862.078 3521.86L864 3525.37L865.922 3528.88L895.325 3512.77L893.403 3509.26ZM864 3525.37H868V3516.17H864H860V3525.37H864ZM864 3516.17L865.898 3519.69L895.302 3503.84L893.403 3500.32L891.505 3496.79L862.102 3512.65L864 3516.17ZM893.403 3500.32H889.403V3509.26H893.403H897.403V3500.32H893.403ZM909 3592.29H905V3597.07L909.698 3596.23L909 3592.29ZM909 3584.37L908.194 3580.45L905 3581.11V3584.37H909ZM915.009 3581.91L912.79 3578.58L912.776 3578.59L912.762 3578.6L915.009 3581.91ZM919.355 3577.69L916.12 3575.34L916.103 3575.36L916.086 3575.38L919.355 3577.69ZM922.04 3572.22L918.206 3571.08L922.04 3572.22ZM919.93 3555.19L923.326 3553.07L923.32 3553.06L919.93 3555.19ZM911.077 3547.55L912.827 3543.95L912.819 3543.95L912.811 3543.94L911.077 3547.55ZM882.377 3547.55L880.644 3543.94L880.636 3543.95L880.628 3543.95L882.377 3547.55ZM873.524 3555.19L870.135 3553.06L870.128 3553.07L873.524 3555.19ZM871.415 3572.22L875.248 3571.08L871.415 3572.22ZM874.067 3577.69L870.813 3580.01L870.818 3580.02L874.067 3577.69ZM878.446 3581.91L880.674 3578.58L880.665 3578.58L878.446 3581.91ZM884.455 3584.37H888.455V3581.11L885.267 3580.45L884.455 3584.37ZM884.455 3592.29L883.752 3596.23L888.455 3597.07V3592.29H884.455ZM875.474 3589.03L877.524 3585.6L875.474 3589.03ZM868.73 3583.15L865.579 3585.62L865.586 3585.63L865.593 3585.63L868.73 3583.15ZM864.543 3575.26L868.344 3574.01L868.341 3574L864.543 3575.26ZM867.196 3551.07L863.808 3548.94L867.196 3551.07ZM878.83 3540.81L880.606 3544.39L878.83 3540.81ZM928.911 3575.26L925.114 3574L925.111 3574.01L928.911 3575.26ZM924.692 3583.15L921.555 3580.67L921.548 3580.68L921.541 3580.69L924.692 3583.15ZM917.981 3589.03L915.931 3585.6L915.925 3585.6L915.919 3585.61L917.981 3589.03ZM909 3592.29H913V3584.37H909H905V3592.29H909ZM909 3584.37L909.806 3588.29C912.542 3587.72 915.046 3586.72 917.256 3585.22L915.009 3581.91L912.762 3578.6C911.519 3579.44 910.018 3580.07 908.194 3580.45L909 3584.37ZM915.009 3581.91L917.227 3585.23C919.355 3583.82 921.162 3582.07 922.624 3579.99L919.355 3577.69L916.086 3575.38C915.204 3576.63 914.114 3577.7 912.79 3578.58L915.009 3581.91ZM919.355 3577.69L922.59 3580.04C924.058 3578.02 925.151 3575.79 925.873 3573.36L922.04 3572.22L918.206 3571.08C917.735 3572.66 917.039 3574.07 916.12 3575.34L919.355 3577.69ZM922.04 3572.22L925.873 3573.36C926.585 3570.98 926.935 3568.5 926.935 3565.96H922.935H918.935C918.935 3567.76 918.688 3569.46 918.206 3571.08L922.04 3572.22ZM922.935 3565.96H926.935C926.935 3561.28 925.742 3556.96 923.326 3553.07L919.93 3555.19L916.535 3557.3C918.124 3559.86 918.935 3562.71 918.935 3565.96H922.935ZM919.93 3555.19L923.32 3553.06C920.862 3549.14 917.297 3546.13 912.827 3543.95L911.077 3547.55L909.328 3551.15C912.656 3552.77 914.993 3554.84 916.541 3557.31L919.93 3555.19ZM911.077 3547.55L912.811 3543.94C908.23 3541.74 902.817 3540.74 896.727 3540.74V3544.74V3548.74C901.973 3548.74 906.126 3549.61 909.344 3551.15L911.077 3547.55ZM896.727 3544.74V3540.74C890.638 3540.74 885.224 3541.74 880.644 3543.94L882.377 3547.55L884.111 3551.15C887.328 3549.61 891.481 3548.74 896.727 3548.74V3544.74ZM882.377 3547.55L880.628 3543.95C876.158 3546.13 872.592 3549.14 870.135 3553.06L873.524 3555.19L876.914 3557.31C878.462 3554.84 880.798 3552.77 884.127 3551.15L882.377 3547.55ZM873.524 3555.19L870.128 3553.07C867.712 3556.96 866.52 3561.28 866.52 3565.96H870.52H874.52C874.52 3562.71 875.331 3559.86 876.92 3557.3L873.524 3555.19ZM870.52 3565.96H866.52C866.52 3568.5 866.87 3570.98 867.581 3573.36L871.415 3572.22L875.248 3571.08C874.766 3569.46 874.52 3567.76 874.52 3565.96H870.52ZM871.415 3572.22L867.581 3573.36C868.299 3575.78 869.374 3578 870.813 3580.01L874.067 3577.69L877.322 3575.36C876.417 3574.1 875.723 3572.68 875.248 3571.08L871.415 3572.22ZM874.067 3577.69L870.818 3580.02C872.296 3582.08 874.106 3583.82 876.227 3585.23L878.446 3581.91L880.665 3578.58C879.334 3577.69 878.225 3576.62 877.317 3575.36L874.067 3577.69ZM878.446 3581.91L876.218 3585.23C878.434 3586.71 880.926 3587.72 883.642 3588.28L884.455 3584.37L885.267 3580.45C883.466 3580.08 881.953 3579.44 880.674 3578.58L878.446 3581.91ZM884.455 3584.37H880.455V3592.29H884.455H888.455V3584.37H884.455ZM884.455 3592.29L885.157 3588.36C882.238 3587.84 879.709 3586.9 877.524 3585.6L875.474 3589.03L873.424 3592.47C876.522 3594.32 879.981 3595.56 883.752 3596.23L884.455 3592.29ZM875.474 3589.03L877.524 3585.6C875.286 3584.26 873.411 3582.62 871.867 3580.67L868.73 3583.15L865.593 3585.63C867.757 3588.37 870.377 3590.65 873.424 3592.47L875.474 3589.03ZM868.73 3583.15L871.881 3580.69C870.343 3578.72 869.163 3576.5 868.344 3574.01L864.543 3575.26L860.743 3576.51C861.841 3579.85 863.452 3582.9 865.579 3585.62L868.73 3583.15ZM864.543 3575.26L868.341 3574C867.527 3571.54 867.105 3568.87 867.105 3565.96H863.105H859.105C859.105 3569.65 859.642 3573.18 860.746 3576.52L864.543 3575.26ZM863.105 3565.96H867.105C867.105 3561.06 868.292 3556.84 870.584 3553.19L867.196 3551.07L863.808 3548.94C860.646 3553.98 859.105 3559.69 859.105 3565.96H863.105ZM867.196 3551.07L870.584 3553.19C872.883 3549.53 876.175 3546.59 880.606 3544.39L878.83 3540.81L877.053 3537.22C871.427 3540.01 866.964 3543.91 863.808 3548.94L867.196 3551.07ZM878.83 3540.81L880.606 3544.39C884.97 3542.23 890.301 3541.07 896.727 3541.07V3537.07V3533.07C889.347 3533.07 882.746 3534.4 877.053 3537.22L878.83 3540.81ZM896.727 3537.07V3541.07C903.153 3541.07 908.485 3542.23 912.848 3544.39L914.625 3540.81L916.402 3537.22C910.709 3534.4 904.108 3533.07 896.727 3533.07V3537.07ZM914.625 3540.81L912.848 3544.39C917.279 3546.59 920.572 3549.53 922.87 3553.19L926.259 3551.07L929.647 3548.94C926.491 3543.91 922.027 3540.01 916.402 3537.22L914.625 3540.81ZM926.259 3551.07L922.87 3553.19C925.163 3556.84 926.349 3561.06 926.349 3565.96H930.349H934.349C934.349 3559.69 932.809 3553.98 929.647 3548.94L926.259 3551.07ZM930.349 3565.96H926.349C926.349 3568.87 925.928 3571.54 925.114 3574L928.911 3575.26L932.709 3576.52C933.812 3573.18 934.349 3569.65 934.349 3565.96H930.349ZM928.911 3575.26L925.111 3574.01C924.295 3576.5 923.109 3578.71 921.555 3580.67L924.692 3583.15L927.83 3585.63C929.983 3582.91 931.61 3579.86 932.711 3576.51L928.911 3575.26ZM924.692 3583.15L921.541 3580.69C920.023 3582.63 918.164 3584.27 915.931 3585.6L917.981 3589.03L920.031 3592.47C923.082 3590.65 925.697 3588.36 927.844 3585.62L924.692 3583.15ZM917.981 3589.03L915.919 3585.61C913.764 3586.9 911.243 3587.83 908.302 3588.36L909 3592.29L909.698 3596.23C913.49 3595.56 916.956 3594.32 920.043 3592.46L917.981 3589.03ZM864 3611.39H860V3614.21L862.662 3615.16L864 3611.39ZM864 3603.08L865.379 3599.32L860 3597.35V3603.08H864ZM929.455 3627.11H933.455V3624.32L930.833 3623.36L929.455 3627.11ZM929.455 3635.29L930.833 3639.05L933.455 3638.09V3635.29H929.455ZM864 3659.33H860V3665.06L865.379 3663.08L864 3659.33ZM864 3651.02L862.662 3647.25L860 3648.19V3651.02H864ZM919.099 3631.46L920.438 3635.23L923.099 3634.28V3631.46H919.099ZM919.099 3630.95H923.099V3628.12L920.438 3627.18L919.099 3630.95ZM889.568 3614.45H893.568V3610.45H889.568V3614.45ZM889.568 3647.95V3651.95H893.568V3647.95H889.568ZM882.537 3647.95H878.537V3651.95H882.537V3647.95ZM882.537 3614.45V3610.45H878.537V3614.45H882.537ZM864 3611.39H868V3603.08H864H860V3611.39H864ZM864 3603.08L862.621 3606.83L928.076 3630.87L929.455 3627.11L930.833 3623.36L865.379 3599.32L864 3603.08ZM929.455 3627.11H925.455V3635.29H929.455H933.455V3627.11H929.455ZM929.455 3635.29L928.076 3631.54L862.621 3655.57L864 3659.33L865.379 3663.08L930.833 3639.05L929.455 3635.29ZM864 3659.33H868V3651.02H864H860V3659.33H864ZM864 3651.02L865.338 3654.79L920.438 3635.23L919.099 3631.46L917.761 3627.69L862.662 3647.25L864 3651.02ZM919.099 3631.46H923.099V3630.95H919.099H915.099V3631.46H919.099ZM919.099 3630.95L920.438 3627.18L865.338 3607.62L864 3611.39L862.662 3615.16L917.761 3634.72L919.099 3630.95ZM889.568 3614.45H885.568V3647.95H889.568H893.568V3614.45H889.568ZM889.568 3647.95V3643.95H882.537V3647.95V3651.95H889.568V3647.95ZM882.537 3647.95H886.537V3614.45H882.537H878.537V3647.95H882.537ZM882.537 3614.45V3618.45H889.568V3614.45V3610.45H882.537V3614.45ZM913.091 3708.92L912.621 3704.95L909.091 3705.36V3708.92H913.091ZM920.634 3704.25L917.289 3702.06L920.634 3704.25ZM921.912 3686.61L925.585 3685.03L925.582 3685.02L925.579 3685.01L921.912 3686.61ZM918.045 3681.56L920.425 3678.34L920.411 3678.33L920.397 3678.32L918.045 3681.56ZM907.945 3681.02L905.74 3677.68L905.707 3677.7L905.674 3677.72L907.945 3681.02ZM904.845 3684.28L901.459 3682.15L901.447 3682.17L901.435 3682.19L904.845 3684.28ZM902.832 3688.43L899.077 3687.05L899.068 3687.08L899.06 3687.1L902.832 3688.43ZM901.585 3692.43L905.448 3693.47L905.451 3693.46L905.454 3693.44L901.585 3692.43ZM899.795 3699.07L895.933 3698.03L895.93 3698.05L895.927 3698.06L899.795 3699.07ZM897.942 3704.76L894.2 3703.35L894.195 3703.36L897.942 3704.76ZM894.714 3710.8L891.454 3708.49L891.439 3708.51L891.425 3708.53L894.714 3710.8ZM889.536 3715.6L891.584 3719.03H891.584L889.536 3715.6ZM872.182 3714.7L874.36 3711.35L874.351 3711.34L874.342 3711.34L872.182 3714.7ZM865.374 3706.65L868.986 3704.93L868.982 3704.92L865.374 3706.65ZM865.119 3681.66L861.462 3680.03L861.459 3680.04L865.119 3681.66ZM871.447 3673.6L869.117 3670.35L869.109 3670.36L869.1 3670.36L871.447 3673.6ZM880.875 3670.31H884.875V3666.01L880.59 3666.32L880.875 3670.31ZM880.875 3678.49L881.219 3682.48L884.875 3682.16V3678.49H880.875ZM874.739 3680.98L872.071 3678L872.051 3678.02L872.03 3678.04L874.739 3680.98ZM871.159 3686.55L867.386 3685.22L867.379 3685.24L867.372 3685.26L871.159 3686.55ZM871.479 3701.98L867.774 3703.49L867.78 3703.5L867.785 3703.52L871.479 3701.98ZM875.634 3707.7L873.144 3710.83L873.153 3710.84L873.162 3710.85L875.634 3707.7ZM887.203 3707.99L889.863 3710.98L887.203 3707.99ZM890.527 3703.2L886.852 3701.62L890.527 3703.2ZM892.764 3696.77L888.918 3695.67L888.914 3695.69L888.91 3695.7L892.764 3696.77ZM895.065 3688.72L891.221 3687.61L891.219 3687.62L895.065 3688.72ZM901.362 3676.57L898.409 3673.87L901.362 3676.57ZM921.656 3675.07L924.012 3671.84L924.007 3671.84L921.656 3675.07ZM928.048 3683.13L924.4 3684.77L924.404 3684.78L928.048 3683.13ZM928.08 3705.72L924.448 3704.05L924.443 3704.06L924.439 3704.07L928.08 3705.72ZM921.944 3713.52L919.569 3710.3L919.561 3710.31L919.552 3710.31L921.944 3713.52ZM913.091 3716.59H909.091V3720.72L913.22 3720.59L913.091 3716.59ZM913.091 3708.92L913.561 3712.89C917.974 3712.37 921.54 3710.16 923.978 3706.45L920.634 3704.25L917.289 3702.06C916.148 3703.8 914.685 3704.7 912.621 3704.95L913.091 3708.92ZM920.634 3704.25L923.978 3706.45C926.28 3702.94 927.318 3698.79 927.318 3694.22H923.318H919.318C919.318 3697.57 918.567 3700.11 917.289 3702.06L920.634 3704.25ZM923.318 3694.22H927.318C927.318 3690.89 926.781 3687.8 925.585 3685.03L921.912 3686.61L918.239 3688.19C918.918 3689.77 919.318 3691.74 919.318 3694.22H923.318ZM921.912 3686.61L925.579 3685.01C924.404 3682.32 922.709 3680.04 920.425 3678.34L918.045 3681.56L915.665 3684.77C916.662 3685.51 917.545 3686.6 918.245 3688.21L921.912 3686.61ZM918.045 3681.56L920.397 3678.32C918.052 3676.62 915.359 3675.77 912.452 3675.77V3679.77V3683.77C913.721 3683.77 914.756 3684.11 915.692 3684.79L918.045 3681.56ZM912.452 3679.77V3675.77C910.048 3675.77 907.75 3676.35 905.74 3677.68L907.945 3681.02L910.151 3684.35C910.655 3684.02 911.361 3683.77 912.452 3683.77V3679.77ZM907.945 3681.02L905.674 3677.72C903.974 3678.9 902.568 3680.38 901.459 3682.15L904.845 3684.28L908.231 3686.41C908.785 3685.53 909.445 3684.84 910.216 3684.31L907.945 3681.02ZM904.845 3684.28L901.435 3682.19C900.488 3683.73 899.701 3685.35 899.077 3687.05L902.832 3688.43L906.586 3689.81C907.027 3688.61 907.583 3687.46 908.256 3686.37L904.845 3684.28ZM902.832 3688.43L899.06 3687.1C898.52 3688.63 898.07 3690.07 897.717 3691.41L901.585 3692.43L905.454 3693.44C905.74 3692.36 906.121 3691.13 906.604 3689.76L902.832 3688.43ZM901.585 3692.43L897.723 3691.39L895.933 3698.03L899.795 3699.07L903.658 3700.11L905.448 3693.47L901.585 3692.43ZM899.795 3699.07L895.927 3698.06C895.522 3699.6 894.951 3701.36 894.2 3703.35L897.942 3704.76L901.684 3706.18C902.509 3703.99 903.174 3701.96 903.664 3700.09L899.795 3699.07ZM897.942 3704.76L894.195 3703.36C893.534 3705.13 892.625 3706.84 891.454 3708.49L894.714 3710.8L897.974 3713.12C899.53 3710.93 900.773 3708.61 901.689 3706.16L897.942 3704.76ZM894.714 3710.8L891.425 3708.53C890.422 3709.98 889.127 3711.18 887.488 3712.16L889.536 3715.6L891.584 3719.03C894.164 3717.5 896.321 3715.51 898.003 3713.08L894.714 3710.8ZM889.536 3715.6L887.488 3712.16C886.135 3712.97 884.295 3713.48 881.77 3713.48V3717.48V3721.48C885.381 3721.48 888.718 3720.74 891.584 3719.03L889.536 3715.6ZM881.77 3717.48V3713.48C878.974 3713.48 876.54 3712.76 874.36 3711.35L872.182 3714.7L870.004 3718.06C873.533 3720.35 877.492 3721.48 881.77 3721.48V3717.48ZM872.182 3714.7L874.342 3711.34C872.207 3709.97 870.399 3707.9 868.986 3704.93L865.374 3706.65L861.762 3708.37C863.716 3712.47 866.446 3715.77 870.021 3718.07L872.182 3714.7ZM865.374 3706.65L868.982 3704.92C867.621 3702.08 866.849 3698.43 866.849 3693.83H862.849H858.849C858.849 3699.29 859.761 3704.19 861.766 3708.38L865.374 3706.65ZM862.849 3693.83H866.849C866.849 3689.57 867.539 3686.08 868.779 3683.27L865.119 3681.66L861.459 3680.04C859.673 3684.09 858.849 3688.72 858.849 3693.83H862.849ZM865.119 3681.66L868.775 3683.28C870.035 3680.44 871.723 3678.34 873.793 3676.84L871.447 3673.6L869.1 3670.36C865.758 3672.78 863.227 3676.06 861.462 3680.03L865.119 3681.66ZM871.447 3673.6L873.777 3676.85C875.835 3675.38 878.257 3674.51 881.16 3674.3L880.875 3670.31L880.59 3666.32C876.333 3666.62 872.47 3667.95 869.117 3670.35L871.447 3673.6ZM880.875 3670.31H876.875V3678.49H880.875H884.875V3670.31H880.875ZM880.875 3678.49L880.531 3674.51C877.325 3674.78 874.426 3675.9 872.071 3678L874.739 3680.98L877.406 3683.97C878.29 3683.17 879.482 3682.63 881.219 3682.48L880.875 3678.49ZM874.739 3680.98L872.03 3678.04C869.907 3679.99 868.372 3682.42 867.386 3685.22L871.159 3686.55L874.932 3687.87C875.523 3686.2 876.374 3684.92 877.447 3683.93L874.739 3680.98ZM871.159 3686.55L867.372 3685.26C866.452 3687.97 866.009 3690.83 866.009 3693.83H870.009H874.009C874.009 3691.63 874.332 3689.64 874.947 3687.83L871.159 3686.55ZM870.009 3693.83H866.009C866.009 3697.29 866.57 3700.53 867.774 3703.49L871.479 3701.98L875.183 3700.47C874.428 3698.62 874.009 3696.42 874.009 3693.83H870.009ZM871.479 3701.98L867.785 3703.52C869.006 3706.45 870.769 3708.95 873.144 3710.83L875.634 3707.7L878.123 3704.57C876.961 3703.65 875.954 3702.33 875.172 3700.45L871.479 3701.98ZM875.634 3707.7L873.162 3710.85C875.693 3712.84 878.662 3713.81 881.898 3713.81V3709.81V3705.81C880.361 3705.81 879.154 3705.38 878.105 3704.56L875.634 3707.7ZM881.898 3709.81V3713.81C884.855 3713.81 887.633 3712.96 889.863 3710.98L887.203 3707.99L884.543 3705C884.046 3705.45 883.287 3705.81 881.898 3705.81V3709.81ZM887.203 3707.99L889.863 3710.98C891.736 3709.31 893.16 3707.2 894.202 3704.78L890.527 3703.2L886.852 3701.62C886.19 3703.16 885.397 3704.24 884.543 3705L887.203 3707.99ZM890.527 3703.2L894.202 3704.78C895.132 3702.61 895.936 3700.3 896.618 3697.84L892.764 3696.77L888.91 3695.7C888.314 3697.85 887.626 3699.82 886.852 3701.62L890.527 3703.2ZM892.764 3696.77L896.61 3697.87L898.911 3689.82L895.065 3688.72L891.219 3687.62L888.918 3695.67L892.764 3696.77ZM895.065 3688.72L898.91 3689.82C900.261 3685.12 902.113 3681.68 904.314 3679.27L901.362 3676.57L898.409 3673.87C895.156 3677.43 892.81 3682.09 891.221 3687.61L895.065 3688.72ZM901.362 3676.57L904.314 3679.27C906.209 3677.2 908.666 3676.1 912.068 3676.1V3672.1V3668.1C906.649 3668.1 901.968 3669.98 898.409 3673.87L901.362 3676.57ZM912.068 3672.1V3676.1C914.966 3676.1 917.321 3676.87 919.305 3678.31L921.656 3675.07L924.007 3671.84C920.537 3669.31 916.5 3668.1 912.068 3668.1V3672.1ZM921.656 3675.07L919.301 3678.3C921.44 3679.86 923.147 3681.98 924.4 3684.77L928.048 3683.13L931.697 3681.49C929.924 3677.54 927.37 3674.29 924.012 3671.84L921.656 3675.07ZM928.048 3683.13L924.404 3684.78C925.677 3687.58 926.349 3690.79 926.349 3694.47H930.349H934.349C934.349 3689.8 933.488 3685.44 931.692 3681.48L928.048 3683.13ZM930.349 3694.47H926.349C926.349 3698.21 925.681 3701.37 924.448 3704.05L928.08 3705.72L931.713 3707.4C933.505 3703.51 934.349 3699.17 934.349 3694.47H930.349ZM928.08 3705.72L924.439 3704.07C923.196 3706.8 921.559 3708.83 919.569 3710.3L921.944 3713.52L924.318 3716.74C927.528 3714.37 929.981 3711.21 931.722 3707.38L928.08 3705.72ZM921.944 3713.52L919.552 3710.31C917.622 3711.75 915.464 3712.51 912.962 3712.59L913.091 3716.59L913.22 3720.59C917.323 3720.45 921.067 3719.16 924.335 3716.73L921.944 3713.52ZM913.091 3716.59H917.091V3708.92H913.091H909.091V3716.59H913.091ZM864 3734.11V3730.11H860V3734.11H864ZM929.455 3734.11H933.455V3730.11H929.455V3734.11ZM929.455 3773.62V3777.62H933.455V3773.62H929.455ZM922.423 3773.62H918.423V3777.62H922.423V3773.62ZM922.423 3742.04H926.423V3738.04H922.423V3742.04ZM900.307 3742.04V3738.04H896.307V3742.04H900.307ZM900.307 3771.57V3775.57H904.307V3771.57H900.307ZM893.276 3771.57H889.276V3775.57H893.276V3771.57ZM893.276 3742.04H897.276V3738.04H893.276V3742.04ZM871.031 3742.04V3738.04H867.031V3742.04H871.031ZM871.031 3774.13V3778.13H875.031V3774.13H871.031ZM864 3774.13H860V3778.13H864V3774.13ZM864 3734.11V3738.11H929.455V3734.11V3730.11H864V3734.11ZM929.455 3734.11H925.455V3773.62H929.455H933.455V3734.11H929.455ZM929.455 3773.62V3769.62H922.423V3773.62V3777.62H929.455V3773.62ZM922.423 3773.62H926.423V3742.04H922.423H918.423V3773.62H922.423ZM922.423 3742.04V3738.04H900.307V3742.04V3746.04H922.423V3742.04ZM900.307 3742.04H896.307V3771.57H900.307H904.307V3742.04H900.307ZM900.307 3771.57V3767.57H893.276V3771.57V3775.57H900.307V3771.57ZM893.276 3771.57H897.276V3742.04H893.276H889.276V3771.57H893.276ZM893.276 3742.04V3738.04H871.031V3742.04V3746.04H893.276V3742.04ZM871.031 3742.04H867.031V3774.13H871.031H875.031V3742.04H871.031ZM871.031 3774.13V3770.13H864V3774.13V3778.13H871.031V3774.13ZM864 3774.13H868V3734.11H864H860V3774.13H864Z" fill="black" mask="url(#path-63-outside-1_20_5)"/>
</g>
<defs>
<clipPath id="clip0_20_5">
<rect width="1000" height="9942" fill="white"/>
</clipPath>
</defs>
</svg>
